<svg viewBox="1.1"
baseProfile="full"
xmlns="http://www.w3.org/2000/svg">
<circle cx="879" cy="879" r="879" fill="red" stroke="white" />
<rect  x="524" y="75" width="90" height="75" fill="green" stroke="white" />
<rect  x="615" y="75" width="90" height="75" fill="green" stroke="white" />
<rect  x="706" y="75" width="90" height="75" fill="green" stroke="white" />
<rect  x="797" y="75" width="90" height="75" fill="green" stroke="white" />
<rect  x="888" y="75" width="90" height="75" fill="green" stroke="white" />
<rect  x="979" y="75" width="90" height="75" fill="green" stroke="white" />
<rect  x="1070" y="75" width="90" height="75" fill="green" stroke="white" />
<rect  x="388" y="150" width="90" height="75" fill="green" stroke="white" />
<rect  x="479" y="150" width="90" height="75" fill="green" stroke="white" />
<rect  x="570" y="150" width="90" height="75" fill="green" stroke="white" />
<rect  x="661" y="150" width="90" height="75" fill="green" stroke="white" />
<rect  x="752" y="150" width="90" height="75" fill="green" stroke="white" />
<rect  x="843" y="150" width="90" height="75" fill="green" stroke="white" />
<rect  x="934" y="150" width="90" height="75" fill="green" stroke="white" />
<rect  x="1025" y="150" width="90" height="75" fill="green" stroke="white" />
<rect  x="1116" y="150" width="90" height="75" fill="green" stroke="white" />
<rect  x="1207" y="150" width="90" height="75" fill="green" stroke="white" />
<rect  x="292" y="225" width="90" height="75" fill="green" stroke="white" />
<rect  x="383" y="225" width="90" height="75" fill="green" stroke="white" />
<rect  x="474" y="225" width="90" height="75" fill="green" stroke="white" />
<rect  x="565" y="225" width="90" height="75" fill="green" stroke="white" />
<rect  x="656" y="225" width="90" height="75" fill="green" stroke="white" />
<rect  x="747" y="225" width="90" height="75" fill="green" stroke="white" />
<rect  x="838" y="225" width="90" height="75" fill="green" stroke="white" />
<rect  x="929" y="225" width="90" height="75" fill="green" stroke="white" />
<rect  x="1020" y="225" width="90" height="75" fill="green" stroke="white" />
<rect  x="1111" y="225" width="90" height="75" fill="green" stroke="white" />
<rect  x="1202" y="225" width="90" height="75" fill="green" stroke="white" />
<rect  x="1293" y="225" width="90" height="75" fill="green" stroke="white" />
<rect  x="218" y="300" width="90" height="75" fill="green" stroke="white" />
<rect  x="309" y="300" width="90" height="75" fill="green" stroke="white" />
<rect  x="400" y="300" width="90" height="75" fill="green" stroke="white" />
<rect  x="491" y="300" width="90" height="75" fill="green" stroke="white" />
<rect  x="582" y="300" width="90" height="75" fill="green" stroke="white" />
<rect  x="673" y="300" width="90" height="75" fill="green" stroke="white" />
<rect  x="764" y="300" width="90" height="75" fill="green" stroke="white" />
<rect  x="855" y="300" width="90" height="75" fill="green" stroke="white" />
<rect  x="946" y="300" width="90" height="75" fill="green" stroke="white" />
<rect  x="1037" y="300" width="90" height="75" fill="green" stroke="white" />
<rect  x="1128" y="300" width="90" height="75" fill="green" stroke="white" />
<rect  x="1219" y="300" width="90" height="75" fill="green" stroke="white" />
<rect  x="1310" y="300" width="90" height="75" fill="green" stroke="white" />
<rect  x="1401" y="300" width="90" height="75" fill="green" stroke="white" />
<rect  x="159" y="375" width="90" height="75" fill="green" stroke="white" />
<rect  x="250" y="375" width="90" height="75" fill="green" stroke="white" />
<rect  x="341" y="375" width="90" height="75" fill="green" stroke="white" />
<rect  x="432" y="375" width="90" height="75" fill="green" stroke="white" />
<rect  x="523" y="375" width="90" height="75" fill="green" stroke="white" />
<rect  x="614" y="375" width="90" height="75" fill="green" stroke="white" />
<rect  x="705" y="375" width="90" height="75" fill="green" stroke="white" />
<rect  x="796" y="375" width="90" height="75" fill="green" stroke="white" />
<rect  x="887" y="375" width="90" height="75" fill="green" stroke="white" />
<rect  x="978" y="375" width="90" height="75" fill="green" stroke="white" />
<rect  x="1069" y="375" width="90" height="75" fill="green" stroke="white" />
<rect  x="1160" y="375" width="90" height="75" fill="green" stroke="white" />
<rect  x="1251" y="375" width="90" height="75" fill="green" stroke="white" />
<rect  x="1342" y="375" width="90" height="75" fill="green" stroke="white" />
<rect  x="1433" y="375" width="90" height="75" fill="green" stroke="white" />
<rect  x="112" y="450" width="90" height="75" fill="green" stroke="white" />
<rect  x="203" y="450" width="90" height="75" fill="green" stroke="white" />
<rect  x="294" y="450" width="90" height="75" fill="green" stroke="white" />
<rect  x="385" y="450" width="90" height="75" fill="green" stroke="white" />
<rect  x="476" y="450" width="90" height="75" fill="green" stroke="white" />
<rect  x="567" y="450" width="90" height="75" fill="green" stroke="white" />
<rect  x="658" y="450" width="90" height="75" fill="green" stroke="white" />
<rect  x="749" y="450" width="90" height="75" fill="green" stroke="white" />
<rect  x="840" y="450" width="90" height="75" fill="green" stroke="white" />
<rect  x="931" y="450" width="90" height="75" fill="green" stroke="white" />
<rect  x="1022" y="450" width="90" height="75" fill="green" stroke="white" />
<rect  x="1113" y="450" width="90" height="75" fill="green" stroke="white" />
<rect  x="1204" y="450" width="90" height="75" fill="green" stroke="white" />
<rect  x="1295" y="450" width="90" height="75" fill="green" stroke="white" />
<rect  x="1386" y="450" width="90" height="75" fill="green" stroke="white" />
<rect  x="1477" y="450" width="90" height="75" fill="green" stroke="white" />
<rect  x="75" y="525" width="90" height="75" fill="green" stroke="white" />
<rect  x="166" y="525" width="90" height="75" fill="green" stroke="white" />
<rect  x="257" y="525" width="90" height="75" fill="green" stroke="white" />
<rect  x="348" y="525" width="90" height="75" fill="green" stroke="white" />
<rect  x="439" y="525" width="90" height="75" fill="green" stroke="white" />
<rect  x="530" y="525" width="90" height="75" fill="green" stroke="white" />
<rect  x="621" y="525" width="90" height="75" fill="green" stroke="white" />
<rect  x="712" y="525" width="90" height="75" fill="green" stroke="white" />
<rect  x="803" y="525" width="90" height="75" fill="green" stroke="white" />
<rect  x="894" y="525" width="90" height="75" fill="green" stroke="white" />
<rect  x="985" y="525" width="90" height="75" fill="green" stroke="white" />
<rect  x="1076" y="525" width="90" height="75" fill="green" stroke="white" />
<rect  x="1167" y="525" width="90" height="75" fill="green" stroke="white" />
<rect  x="1258" y="525" width="90" height="75" fill="green" stroke="white" />
<rect  x="1349" y="525" width="90" height="75" fill="green" stroke="white" />
<rect  x="1440" y="525" width="90" height="75" fill="green" stroke="white" />
<rect  x="1531" y="525" width="90" height="75" fill="green" stroke="white" />
<rect  x="46" y="600" width="90" height="75" fill="green" stroke="white" />
<rect  x="137" y="600" width="90" height="75" fill="green" stroke="white" />
<rect  x="228" y="600" width="90" height="75" fill="green" stroke="white" />
<rect  x="319" y="600" width="90" height="75" fill="green" stroke="white" />
<rect  x="410" y="600" width="90" height="75" fill="green" stroke="white" />
<rect  x="501" y="600" width="90" height="75" fill="green" stroke="white" />
<rect  x="592" y="600" width="90" height="75" fill="green" stroke="white" />
<rect  x="683" y="600" width="90" height="75" fill="green" stroke="white" />
<rect  x="774" y="600" width="90" height="75" fill="green" stroke="white" />
<rect  x="865" y="600" width="90" height="75" fill="green" stroke="white" />
<rect  x="956" y="600" width="90" height="75" fill="green" stroke="white" />
<rect  x="1047" y="600" width="90" height="75" fill="green" stroke="white" />
<rect  x="1138" y="600" width="90" height="75" fill="green" stroke="white" />
<rect  x="1229" y="600" width="90" height="75" fill="green" stroke="white" />
<rect  x="1320" y="600" width="90" height="75" fill="green" stroke="white" />
<rect  x="1411" y="600" width="90" height="75" fill="green" stroke="white" />
<rect  x="1502" y="600" width="90" height="75" fill="green" stroke="white" />
<rect  x="1593" y="600" width="90" height="75" fill="green" stroke="white" />
<rect  x="24" y="675" width="90" height="75" fill="green" stroke="white" />
<rect  x="115" y="675" width="90" height="75" fill="green" stroke="white" />
<rect  x="206" y="675" width="90" height="75" fill="green" stroke="white" />
<rect  x="297" y="675" width="90" height="75" fill="green" stroke="white" />
<rect  x="388" y="675" width="90" height="75" fill="green" stroke="white" />
<rect  x="479" y="675" width="90" height="75" fill="green" stroke="white" />
<rect  x="570" y="675" width="90" height="75" fill="green" stroke="white" />
<rect  x="661" y="675" width="90" height="75" fill="green" stroke="white" />
<rect  x="752" y="675" width="90" height="75" fill="green" stroke="white" />
<rect  x="843" y="675" width="90" height="75" fill="green" stroke="white" />
<rect  x="934" y="675" width="90" height="75" fill="green" stroke="white" />
<rect  x="1025" y="675" width="90" height="75" fill="green" stroke="white" />
<rect  x="1116" y="675" width="90" height="75" fill="green" stroke="white" />
<rect  x="1207" y="675" width="90" height="75" fill="green" stroke="white" />
<rect  x="1298" y="675" width="90" height="75" fill="green" stroke="white" />
<rect  x="1389" y="675" width="90" height="75" fill="green" stroke="white" />
<rect  x="1480" y="675" width="90" height="75" fill="green" stroke="white" />
<rect  x="1571" y="675" width="90" height="75" fill="green" stroke="white" />
<rect  x="10" y="750" width="90" height="75" fill="green" stroke="white" />
<rect  x="101" y="750" width="90" height="75" fill="green" stroke="white" />
<rect  x="192" y="750" width="90" height="75" fill="green" stroke="white" />
<rect  x="283" y="750" width="90" height="75" fill="green" stroke="white" />
<rect  x="374" y="750" width="90" height="75" fill="green" stroke="white" />
<rect  x="465" y="750" width="90" height="75" fill="green" stroke="white" />
<rect  x="556" y="750" width="90" height="75" fill="green" stroke="white" />
<rect  x="647" y="750" width="90" height="75" fill="green" stroke="white" />
<rect  x="738" y="750" width="90" height="75" fill="green" stroke="white" />
<rect  x="829" y="750" width="90" height="75" fill="green" stroke="white" />
<rect  x="920" y="750" width="90" height="75" fill="green" stroke="white" />
<rect  x="1011" y="750" width="90" height="75" fill="green" stroke="white" />
<rect  x="1102" y="750" width="90" height="75" fill="green" stroke="white" />
<rect  x="1193" y="750" width="90" height="75" fill="green" stroke="white" />
<rect  x="1284" y="750" width="90" height="75" fill="green" stroke="white" />
<rect  x="1375" y="750" width="90" height="75" fill="green" stroke="white" />
<rect  x="1466" y="750" width="90" height="75" fill="green" stroke="white" />
<rect  x="1557" y="750" width="90" height="75" fill="green" stroke="white" />
<rect  x="1648" y="750" width="90" height="75" fill="green" stroke="white" />
<rect  x="2" y="825" width="90" height="75" fill="green" stroke="white" />
<rect  x="93" y="825" width="90" height="75" fill="green" stroke="white" />
<rect  x="184" y="825" width="90" height="75" fill="green" stroke="white" />
<rect  x="275" y="825" width="90" height="75" fill="green" stroke="white" />
<rect  x="366" y="825" width="90" height="75" fill="green" stroke="white" />
<rect  x="457" y="825" width="90" height="75" fill="green" stroke="white" />
<rect  x="548" y="825" width="90" height="75" fill="green" stroke="white" />
<rect  x="639" y="825" width="90" height="75" fill="green" stroke="white" />
<rect  x="730" y="825" width="90" height="75" fill="green" stroke="white" />
<rect  x="821" y="825" width="90" height="75" fill="green" stroke="white" />
<rect  x="912" y="825" width="90" height="75" fill="green" stroke="white" />
<rect  x="1003" y="825" width="90" height="75" fill="green" stroke="white" />
<rect  x="1094" y="825" width="90" height="75" fill="green" stroke="white" />
<rect  x="1185" y="825" width="90" height="75" fill="green" stroke="white" />
<rect  x="1276" y="825" width="90" height="75" fill="green" stroke="white" />
<rect  x="1367" y="825" width="90" height="75" fill="green" stroke="white" />
<rect  x="1458" y="825" width="90" height="75" fill="green" stroke="white" />
<rect  x="1549" y="825" width="90" height="75" fill="green" stroke="white" />
<rect  x="1640" y="825" width="90" height="75" fill="green" stroke="white" />
<rect  x="6" y="900" width="90" height="75" fill="green" stroke="white" />
<rect  x="97" y="900" width="90" height="75" fill="green" stroke="white" />
<rect  x="188" y="900" width="90" height="75" fill="green" stroke="white" />
<rect  x="279" y="900" width="90" height="75" fill="green" stroke="white" />
<rect  x="370" y="900" width="90" height="75" fill="green" stroke="white" />
<rect  x="461" y="900" width="90" height="75" fill="green" stroke="white" />
<rect  x="552" y="900" width="90" height="75" fill="green" stroke="white" />
<rect  x="643" y="900" width="90" height="75" fill="green" stroke="white" />
<rect  x="734" y="900" width="90" height="75" fill="green" stroke="white" />
<rect  x="825" y="900" width="90" height="75" fill="green" stroke="white" />
<rect  x="916" y="900" width="90" height="75" fill="green" stroke="white" />
<rect  x="1007" y="900" width="90" height="75" fill="green" stroke="white" />
<rect  x="1098" y="900" width="90" height="75" fill="green" stroke="white" />
<rect  x="1189" y="900" width="90" height="75" fill="green" stroke="white" />
<rect  x="1280" y="900" width="90" height="75" fill="green" stroke="white" />
<rect  x="1371" y="900" width="90" height="75" fill="green" stroke="white" />
<rect  x="1462" y="900" width="90" height="75" fill="green" stroke="white" />
<rect  x="1553" y="900" width="90" height="75" fill="green" stroke="white" />
<rect  x="1644" y="900" width="90" height="75" fill="green" stroke="white" />
<rect  x="17" y="975" width="90" height="75" fill="green" stroke="white" />
<rect  x="108" y="975" width="90" height="75" fill="green" stroke="white" />
<rect  x="199" y="975" width="90" height="75" fill="green" stroke="white" />
<rect  x="290" y="975" width="90" height="75" fill="green" stroke="white" />
<rect  x="381" y="975" width="90" height="75" fill="green" stroke="white" />
<rect  x="472" y="975" width="90" height="75" fill="green" stroke="white" />
<rect  x="563" y="975" width="90" height="75" fill="green" stroke="white" />
<rect  x="654" y="975" width="90" height="75" fill="green" stroke="white" />
<rect  x="745" y="975" width="90" height="75" fill="green" stroke="white" />
<rect  x="836" y="975" width="90" height="75" fill="green" stroke="white" />
<rect  x="927" y="975" width="90" height="75" fill="green" stroke="white" />
<rect  x="1018" y="975" width="90" height="75" fill="green" stroke="white" />
<rect  x="1109" y="975" width="90" height="75" fill="green" stroke="white" />
<rect  x="1200" y="975" width="90" height="75" fill="green" stroke="white" />
<rect  x="1291" y="975" width="90" height="75" fill="green" stroke="white" />
<rect  x="1382" y="975" width="90" height="75" fill="green" stroke="white" />
<rect  x="1473" y="975" width="90" height="75" fill="green" stroke="white" />
<rect  x="1564" y="975" width="90" height="75" fill="green" stroke="white" />
<rect  x="36" y="1050" width="90" height="75" fill="green" stroke="white" />
<rect  x="127" y="1050" width="90" height="75" fill="green" stroke="white" />
<rect  x="218" y="1050" width="90" height="75" fill="green" stroke="white" />
<rect  x="309" y="1050" width="90" height="75" fill="green" stroke="white" />
<rect  x="400" y="1050" width="90" height="75" fill="green" stroke="white" />
<rect  x="491" y="1050" width="90" height="75" fill="green" stroke="white" />
<rect  x="582" y="1050" width="90" height="75" fill="green" stroke="white" />
<rect  x="673" y="1050" width="90" height="75" fill="green" stroke="white" />
<rect  x="764" y="1050" width="90" height="75" fill="green" stroke="white" />
<rect  x="855" y="1050" width="90" height="75" fill="green" stroke="white" />
<rect  x="946" y="1050" width="90" height="75" fill="green" stroke="white" />
<rect  x="1037" y="1050" width="90" height="75" fill="green" stroke="white" />
<rect  x="1128" y="1050" width="90" height="75" fill="green" stroke="white" />
<rect  x="1219" y="1050" width="90" height="75" fill="green" stroke="white" />
<rect  x="1310" y="1050" width="90" height="75" fill="green" stroke="white" />
<rect  x="1401" y="1050" width="90" height="75" fill="green" stroke="white" />
<rect  x="1492" y="1050" width="90" height="75" fill="green" stroke="white" />
<rect  x="1583" y="1050" width="90" height="75" fill="green" stroke="white" />
<rect  x="61" y="1125" width="90" height="75" fill="green" stroke="white" />
<rect  x="152" y="1125" width="90" height="75" fill="green" stroke="white" />
<rect  x="243" y="1125" width="90" height="75" fill="green" stroke="white" />
<rect  x="334" y="1125" width="90" height="75" fill="green" stroke="white" />
<rect  x="425" y="1125" width="90" height="75" fill="green" stroke="white" />
<rect  x="516" y="1125" width="90" height="75" fill="green" stroke="white" />
<rect  x="607" y="1125" width="90" height="75" fill="green" stroke="white" />
<rect  x="698" y="1125" width="90" height="75" fill="green" stroke="white" />
<rect  x="789" y="1125" width="90" height="75" fill="green" stroke="white" />
<rect  x="880" y="1125" width="90" height="75" fill="green" stroke="white" />
<rect  x="971" y="1125" width="90" height="75" fill="green" stroke="white" />
<rect  x="1062" y="1125" width="90" height="75" fill="green" stroke="white" />
<rect  x="1153" y="1125" width="90" height="75" fill="green" stroke="white" />
<rect  x="1244" y="1125" width="90" height="75" fill="green" stroke="white" />
<rect  x="1335" y="1125" width="90" height="75" fill="green" stroke="white" />
<rect  x="1426" y="1125" width="90" height="75" fill="green" stroke="white" />
<rect  x="1517" y="1125" width="90" height="75" fill="green" stroke="white" />
<rect  x="95" y="1200" width="90" height="75" fill="green" stroke="white" />
<rect  x="186" y="1200" width="90" height="75" fill="green" stroke="white" />
<rect  x="277" y="1200" width="90" height="75" fill="green" stroke="white" />
<rect  x="368" y="1200" width="90" height="75" fill="green" stroke="white" />
<rect  x="459" y="1200" width="90" height="75" fill="green" stroke="white" />
<rect  x="550" y="1200" width="90" height="75" fill="green" stroke="white" />
<rect  x="641" y="1200" width="90" height="75" fill="green" stroke="white" />
<rect  x="732" y="1200" width="90" height="75" fill="green" stroke="white" />
<rect  x="823" y="1200" width="90" height="75" fill="green" stroke="white" />
<rect  x="914" y="1200" width="90" height="75" fill="green" stroke="white" />
<rect  x="1005" y="1200" width="90" height="75" fill="green" stroke="white" />
<rect  x="1096" y="1200" width="90" height="75" fill="green" stroke="white" />
<rect  x="1187" y="1200" width="90" height="75" fill="green" stroke="white" />
<rect  x="1278" y="1200" width="90" height="75" fill="green" stroke="white" />
<rect  x="1369" y="1200" width="90" height="75" fill="green" stroke="white" />
<rect  x="1460" y="1200" width="90" height="75" fill="green" stroke="white" />
<rect  x="1551" y="1200" width="90" height="75" fill="green" stroke="white" />
<rect  x="137" y="1275" width="90" height="75" fill="green" stroke="white" />
<rect  x="228" y="1275" width="90" height="75" fill="green" stroke="white" />
<rect  x="319" y="1275" width="90" height="75" fill="green" stroke="white" />
<rect  x="410" y="1275" width="90" height="75" fill="green" stroke="white" />
<rect  x="501" y="1275" width="90" height="75" fill="green" stroke="white" />
<rect  x="592" y="1275" width="90" height="75" fill="green" stroke="white" />
<rect  x="683" y="1275" width="90" height="75" fill="green" stroke="white" />
<rect  x="774" y="1275" width="90" height="75" fill="green" stroke="white" />
<rect  x="865" y="1275" width="90" height="75" fill="green" stroke="white" />
<rect  x="956" y="1275" width="90" height="75" fill="green" stroke="white" />
<rect  x="1047" y="1275" width="90" height="75" fill="green" stroke="white" />
<rect  x="1138" y="1275" width="90" height="75" fill="green" stroke="white" />
<rect  x="1229" y="1275" width="90" height="75" fill="green" stroke="white" />
<rect  x="1320" y="1275" width="90" height="75" fill="green" stroke="white" />
<rect  x="1411" y="1275" width="90" height="75" fill="green" stroke="white" />
<rect  x="1502" y="1275" width="90" height="75" fill="green" stroke="white" />
<rect  x="191" y="1350" width="90" height="75" fill="green" stroke="white" />
<rect  x="282" y="1350" width="90" height="75" fill="green" stroke="white" />
<rect  x="373" y="1350" width="90" height="75" fill="green" stroke="white" />
<rect  x="464" y="1350" width="90" height="75" fill="green" stroke="white" />
<rect  x="555" y="1350" width="90" height="75" fill="green" stroke="white" />
<rect  x="646" y="1350" width="90" height="75" fill="green" stroke="white" />
<rect  x="737" y="1350" width="90" height="75" fill="green" stroke="white" />
<rect  x="828" y="1350" width="90" height="75" fill="green" stroke="white" />
<rect  x="919" y="1350" width="90" height="75" fill="green" stroke="white" />
<rect  x="1010" y="1350" width="90" height="75" fill="green" stroke="white" />
<rect  x="1101" y="1350" width="90" height="75" fill="green" stroke="white" />
<rect  x="1192" y="1350" width="90" height="75" fill="green" stroke="white" />
<rect  x="1283" y="1350" width="90" height="75" fill="green" stroke="white" />
<rect  x="1374" y="1350" width="90" height="75" fill="green" stroke="white" />
<rect  x="1465" y="1350" width="90" height="75" fill="green" stroke="white" />
<rect  x="257" y="1425" width="90" height="75" fill="green" stroke="white" />
<rect  x="348" y="1425" width="90" height="75" fill="green" stroke="white" />
<rect  x="439" y="1425" width="90" height="75" fill="green" stroke="white" />
<rect  x="530" y="1425" width="90" height="75" fill="green" stroke="white" />
<rect  x="621" y="1425" width="90" height="75" fill="green" stroke="white" />
<rect  x="712" y="1425" width="90" height="75" fill="green" stroke="white" />
<rect  x="803" y="1425" width="90" height="75" fill="green" stroke="white" />
<rect  x="894" y="1425" width="90" height="75" fill="green" stroke="white" />
<rect  x="985" y="1425" width="90" height="75" fill="green" stroke="white" />
<rect  x="1076" y="1425" width="90" height="75" fill="green" stroke="white" />
<rect  x="1167" y="1425" width="90" height="75" fill="green" stroke="white" />
<rect  x="1258" y="1425" width="90" height="75" fill="green" stroke="white" />
<rect  x="1349" y="1425" width="90" height="75" fill="green" stroke="white" />
<rect  x="343" y="1500" width="90" height="75" fill="green" stroke="white" />
<rect  x="434" y="1500" width="90" height="75" fill="green" stroke="white" />
<rect  x="525" y="1500" width="90" height="75" fill="green" stroke="white" />
<rect  x="616" y="1500" width="90" height="75" fill="green" stroke="white" />
<rect  x="707" y="1500" width="90" height="75" fill="green" stroke="white" />
<rect  x="798" y="1500" width="90" height="75" fill="green" stroke="white" />
<rect  x="889" y="1500" width="90" height="75" fill="green" stroke="white" />
<rect  x="980" y="1500" width="90" height="75" fill="green" stroke="white" />
<rect  x="1071" y="1500" width="90" height="75" fill="green" stroke="white" />
<rect  x="1162" y="1500" width="90" height="75" fill="green" stroke="white" />
<rect  x="1253" y="1500" width="90" height="75" fill="green" stroke="white" />
<rect  x="457" y="1575" width="90" height="75" fill="green" stroke="white" />
<rect  x="548" y="1575" width="90" height="75" fill="green" stroke="white" />
<rect  x="639" y="1575" width="90" height="75" fill="green" stroke="white" />
<rect  x="730" y="1575" width="90" height="75" fill="green" stroke="white" />
<rect  x="821" y="1575" width="90" height="75" fill="green" stroke="white" />
<rect  x="912" y="1575" width="90" height="75" fill="green" stroke="white" />
<rect  x="1003" y="1575" width="90" height="75" fill="green" stroke="white" />
<rect  x="1094" y="1575" width="90" height="75" fill="green" stroke="white" />
<rect  x="1185" y="1575" width="90" height="75" fill="green" stroke="white" />
<rect  x="641" y="1650" width="90" height="75" fill="green" stroke="white" />
<rect  x="732" y="1650" width="90" height="75" fill="green" stroke="white" />
<rect  x="823" y="1650" width="90" height="75" fill="green" stroke="white" />
<rect  x="914" y="1650" width="90" height="75" fill="green" stroke="white" />
<rect  x="1005" y="1650" width="90" height="75" fill="green" stroke="white" />

</svg>