<svg viewBox="1.1"
baseProfile="full"
xmlns="http://www.w3.org/2000/svg">
<circle cx="879" cy="879" r="879" fill="red" stroke="white" />
<polygon points="424 192.258 479.5 96.1288 535 192.258" fill="green" stroke="white" />
<polygon points="536 192.258 591.5 96.1288 647 192.258" fill="green" stroke="white" />
<polygon points="648 192.258 703.5 96.1288 759 192.258" fill="green" stroke="white" />
<polygon points="760 192.258 815.5 96.1288 871 192.258" fill="green" stroke="white" />
<polygon points="872 192.258 927.5 96.1288 983 192.258" fill="green" stroke="white" />
<polygon points="984 192.258 1039.5 96.1288 1095 192.258" fill="green" stroke="white" />
<polygon points="1096 192.258 1151.5 96.1288 1207 192.258" fill="green" stroke="white" />
<polygon points="1208 192.258 1263.5 96.1288 1319 192.258" fill="green" stroke="white" />
<polygon points="275 288.386 330.5 192.258 386 288.386" fill="green" stroke="white" />
<polygon points="387 288.386 442.5 192.258 498 288.386" fill="green" stroke="white" />
<polygon points="499 288.386 554.5 192.258 610 288.386" fill="green" stroke="white" />
<polygon points="611 288.386 666.5 192.258 722 288.386" fill="green" stroke="white" />
<polygon points="723 288.386 778.5 192.258 834 288.386" fill="green" stroke="white" />
<polygon points="835 288.386 890.5 192.258 946 288.386" fill="green" stroke="white" />
<polygon points="947 288.386 1002.5 192.258 1058 288.386" fill="green" stroke="white" />
<polygon points="1059 288.386 1114.5 192.258 1170 288.386" fill="green" stroke="white" />
<polygon points="1171 288.386 1226.5 192.258 1282 288.386" fill="green" stroke="white" />
<polygon points="1283 288.386 1338.5 192.258 1394 288.386" fill="green" stroke="white" />
<polygon points="173 384.515 228.5 288.386 284 384.515" fill="green" stroke="white" />
<polygon points="285 384.515 340.5 288.386 396 384.515" fill="green" stroke="white" />
<polygon points="397 384.515 452.5 288.386 508 384.515" fill="green" stroke="white" />
<polygon points="509 384.515 564.5 288.386 620 384.515" fill="green" stroke="white" />
<polygon points="621 384.515 676.5 288.386 732 384.515" fill="green" stroke="white" />
<polygon points="733 384.515 788.5 288.386 844 384.515" fill="green" stroke="white" />
<polygon points="845 384.515 900.5 288.386 956 384.515" fill="green" stroke="white" />
<polygon points="957 384.515 1012.5 288.386 1068 384.515" fill="green" stroke="white" />
<polygon points="1069 384.515 1124.5 288.386 1180 384.515" fill="green" stroke="white" />
<polygon points="1181 384.515 1236.5 288.386 1292 384.515" fill="green" stroke="white" />
<polygon points="1293 384.515 1348.5 288.386 1404 384.515" fill="green" stroke="white" />
<polygon points="1405 384.515 1460.5 288.386 1516 384.515" fill="green" stroke="white" />
<polygon points="97 480.644 152.5 384.515 208 480.644" fill="green" stroke="white" />
<polygon points="209 480.644 264.5 384.515 320 480.644" fill="green" stroke="white" />
<polygon points="321 480.644 376.5 384.515 432 480.644" fill="green" stroke="white" />
<polygon points="433 480.644 488.5 384.515 544 480.644" fill="green" stroke="white" />
<polygon points="545 480.644 600.5 384.515 656 480.644" fill="green" stroke="white" />
<polygon points="657 480.644 712.5 384.515 768 480.644" fill="green" stroke="white" />
<polygon points="769 480.644 824.5 384.515 880 480.644" fill="green" stroke="white" />
<polygon points="881 480.644 936.5 384.515 992 480.644" fill="green" stroke="white" />
<polygon points="993 480.644 1048.5 384.515 1104 480.644" fill="green" stroke="white" />
<polygon points="1105 480.644 1160.5 384.515 1216 480.644" fill="green" stroke="white" />
<polygon points="1217 480.644 1272.5 384.515 1328 480.644" fill="green" stroke="white" />
<polygon points="1329 480.644 1384.5 384.515 1440 480.644" fill="green" stroke="white" />
<polygon points="1441 480.644 1496.5 384.515 1552 480.644" fill="green" stroke="white" />
<polygon points="54 576.773 109.5 480.644 165 576.773" fill="green" stroke="white" />
<polygon points="166 576.773 221.5 480.644 277 576.773" fill="green" stroke="white" />
<polygon points="278 576.773 333.5 480.644 389 576.773" fill="green" stroke="white" />
<polygon points="390 576.773 445.5 480.644 501 576.773" fill="green" stroke="white" />
<polygon points="502 576.773 557.5 480.644 613 576.773" fill="green" stroke="white" />
<polygon points="614 576.773 669.5 480.644 725 576.773" fill="green" stroke="white" />
<polygon points="726 576.773 781.5 480.644 837 576.773" fill="green" stroke="white" />
<polygon points="838 576.773 893.5 480.644 949 576.773" fill="green" stroke="white" />
<polygon points="950 576.773 1005.5 480.644 1061 576.773" fill="green" stroke="white" />
<polygon points="1062 576.773 1117.5 480.644 1173 576.773" fill="green" stroke="white" />
<polygon points="1174 576.773 1229.5 480.644 1285 576.773" fill="green" stroke="white" />
<polygon points="1286 576.773 1341.5 480.644 1397 576.773" fill="green" stroke="white" />
<polygon points="1398 576.773 1453.5 480.644 1509 576.773" fill="green" stroke="white" />
<polygon points="1510 576.773 1565.5 480.644 1621 576.773" fill="green" stroke="white" />
<polygon points="25 672.902 80.5 576.773 136 672.902" fill="green" stroke="white" />
<polygon points="137 672.902 192.5 576.773 248 672.902" fill="green" stroke="white" />
<polygon points="249 672.902 304.5 576.773 360 672.902" fill="green" stroke="white" />
<polygon points="361 672.902 416.5 576.773 472 672.902" fill="green" stroke="white" />
<polygon points="473 672.902 528.5 576.773 584 672.902" fill="green" stroke="white" />
<polygon points="585 672.902 640.5 576.773 696 672.902" fill="green" stroke="white" />
<polygon points="697 672.902 752.5 576.773 808 672.902" fill="green" stroke="white" />
<polygon points="809 672.902 864.5 576.773 920 672.902" fill="green" stroke="white" />
<polygon points="921 672.902 976.5 576.773 1032 672.902" fill="green" stroke="white" />
<polygon points="1033 672.902 1088.5 576.773 1144 672.902" fill="green" stroke="white" />
<polygon points="1145 672.902 1200.5 576.773 1256 672.902" fill="green" stroke="white" />
<polygon points="1257 672.902 1312.5 576.773 1368 672.902" fill="green" stroke="white" />
<polygon points="1369 672.902 1424.5 576.773 1480 672.902" fill="green" stroke="white" />
<polygon points="1481 672.902 1536.5 576.773 1592 672.902" fill="green" stroke="white" />
<polygon points="1593 672.902 1648.5 576.773 1704 672.902" fill="green" stroke="white" />
<polygon points="7 769.031 62.5 672.902 118 769.031" fill="green" stroke="white" />
<polygon points="119 769.031 174.5 672.902 230 769.031" fill="green" stroke="white" />
<polygon points="231 769.031 286.5 672.902 342 769.031" fill="green" stroke="white" />
<polygon points="343 769.031 398.5 672.902 454 769.031" fill="green" stroke="white" />
<polygon points="455 769.031 510.5 672.902 566 769.031" fill="green" stroke="white" />
<polygon points="567 769.031 622.5 672.902 678 769.031" fill="green" stroke="white" />
<polygon points="679 769.031 734.5 672.902 790 769.031" fill="green" stroke="white" />
<polygon points="791 769.031 846.5 672.902 902 769.031" fill="green" stroke="white" />
<polygon points="903 769.031 958.5 672.902 1014 769.031" fill="green" stroke="white" />
<polygon points="1015 769.031 1070.5 672.902 1126 769.031" fill="green" stroke="white" />
<polygon points="1127 769.031 1182.5 672.902 1238 769.031" fill="green" stroke="white" />
<polygon points="1239 769.031 1294.5 672.902 1350 769.031" fill="green" stroke="white" />
<polygon points="1351 769.031 1406.5 672.902 1462 769.031" fill="green" stroke="white" />
<polygon points="1463 769.031 1518.5 672.902 1574 769.031" fill="green" stroke="white" />
<polygon points="1575 769.031 1630.5 672.902 1686 769.031" fill="green" stroke="white" />
<polygon points="1 865.159 56.5 769.031 112 865.159" fill="green" stroke="white" />
<polygon points="113 865.159 168.5 769.031 224 865.159" fill="green" stroke="white" />
<polygon points="225 865.159 280.5 769.031 336 865.159" fill="green" stroke="white" />
<polygon points="337 865.159 392.5 769.031 448 865.159" fill="green" stroke="white" />
<polygon points="449 865.159 504.5 769.031 560 865.159" fill="green" stroke="white" />
<polygon points="561 865.159 616.5 769.031 672 865.159" fill="green" stroke="white" />
<polygon points="673 865.159 728.5 769.031 784 865.159" fill="green" stroke="white" />
<polygon points="785 865.159 840.5 769.031 896 865.159" fill="green" stroke="white" />
<polygon points="897 865.159 952.5 769.031 1008 865.159" fill="green" stroke="white" />
<polygon points="1009 865.159 1064.5 769.031 1120 865.159" fill="green" stroke="white" />
<polygon points="1121 865.159 1176.5 769.031 1232 865.159" fill="green" stroke="white" />
<polygon points="1233 865.159 1288.5 769.031 1344 865.159" fill="green" stroke="white" />
<polygon points="1345 865.159 1400.5 769.031 1456 865.159" fill="green" stroke="white" />
<polygon points="1457 865.159 1512.5 769.031 1568 865.159" fill="green" stroke="white" />
<polygon points="1569 865.159 1624.5 769.031 1680 865.159" fill="green" stroke="white" />
<polygon points="4 961.288 59.5 865.159 115 961.288" fill="green" stroke="white" />
<polygon points="116 961.288 171.5 865.159 227 961.288" fill="green" stroke="white" />
<polygon points="228 961.288 283.5 865.159 339 961.288" fill="green" stroke="white" />
<polygon points="340 961.288 395.5 865.159 451 961.288" fill="green" stroke="white" />
<polygon points="452 961.288 507.5 865.159 563 961.288" fill="green" stroke="white" />
<polygon points="564 961.288 619.5 865.159 675 961.288" fill="green" stroke="white" />
<polygon points="676 961.288 731.5 865.159 787 961.288" fill="green" stroke="white" />
<polygon points="788 961.288 843.5 865.159 899 961.288" fill="green" stroke="white" />
<polygon points="900 961.288 955.5 865.159 1011 961.288" fill="green" stroke="white" />
<polygon points="1012 961.288 1067.5 865.159 1123 961.288" fill="green" stroke="white" />
<polygon points="1124 961.288 1179.5 865.159 1235 961.288" fill="green" stroke="white" />
<polygon points="1236 961.288 1291.5 865.159 1347 961.288" fill="green" stroke="white" />
<polygon points="1348 961.288 1403.5 865.159 1459 961.288" fill="green" stroke="white" />
<polygon points="1460 961.288 1515.5 865.159 1571 961.288" fill="green" stroke="white" />
<polygon points="1572 961.288 1627.5 865.159 1683 961.288" fill="green" stroke="white" />
<polygon points="19 1057.42 74.5 961.288 130 1057.42" fill="green" stroke="white" />
<polygon points="131 1057.42 186.5 961.288 242 1057.42" fill="green" stroke="white" />
<polygon points="243 1057.42 298.5 961.288 354 1057.42" fill="green" stroke="white" />
<polygon points="355 1057.42 410.5 961.288 466 1057.42" fill="green" stroke="white" />
<polygon points="467 1057.42 522.5 961.288 578 1057.42" fill="green" stroke="white" />
<polygon points="579 1057.42 634.5 961.288 690 1057.42" fill="green" stroke="white" />
<polygon points="691 1057.42 746.5 961.288 802 1057.42" fill="green" stroke="white" />
<polygon points="803 1057.42 858.5 961.288 914 1057.42" fill="green" stroke="white" />
<polygon points="915 1057.42 970.5 961.288 1026 1057.42" fill="green" stroke="white" />
<polygon points="1027 1057.42 1082.5 961.288 1138 1057.42" fill="green" stroke="white" />
<polygon points="1139 1057.42 1194.5 961.288 1250 1057.42" fill="green" stroke="white" />
<polygon points="1251 1057.42 1306.5 961.288 1362 1057.42" fill="green" stroke="white" />
<polygon points="1363 1057.42 1418.5 961.288 1474 1057.42" fill="green" stroke="white" />
<polygon points="1475 1057.42 1530.5 961.288 1586 1057.42" fill="green" stroke="white" />
<polygon points="1587 1057.42 1642.5 961.288 1698 1057.42" fill="green" stroke="white" />
<polygon points="44 1153.55 99.5 1057.42 155 1153.55" fill="green" stroke="white" />
<polygon points="156 1153.55 211.5 1057.42 267 1153.55" fill="green" stroke="white" />
<polygon points="268 1153.55 323.5 1057.42 379 1153.55" fill="green" stroke="white" />
<polygon points="380 1153.55 435.5 1057.42 491 1153.55" fill="green" stroke="white" />
<polygon points="492 1153.55 547.5 1057.42 603 1153.55" fill="green" stroke="white" />
<polygon points="604 1153.55 659.5 1057.42 715 1153.55" fill="green" stroke="white" />
<polygon points="716 1153.55 771.5 1057.42 827 1153.55" fill="green" stroke="white" />
<polygon points="828 1153.55 883.5 1057.42 939 1153.55" fill="green" stroke="white" />
<polygon points="940 1153.55 995.5 1057.42 1051 1153.55" fill="green" stroke="white" />
<polygon points="1052 1153.55 1107.5 1057.42 1163 1153.55" fill="green" stroke="white" />
<polygon points="1164 1153.55 1219.5 1057.42 1275 1153.55" fill="green" stroke="white" />
<polygon points="1276 1153.55 1331.5 1057.42 1387 1153.55" fill="green" stroke="white" />
<polygon points="1388 1153.55 1443.5 1057.42 1499 1153.55" fill="green" stroke="white" />
<polygon points="1500 1153.55 1555.5 1057.42 1611 1153.55" fill="green" stroke="white" />
<polygon points="82 1249.67 137.5 1153.55 193 1249.67" fill="green" stroke="white" />
<polygon points="194 1249.67 249.5 1153.55 305 1249.67" fill="green" stroke="white" />
<polygon points="306 1249.67 361.5 1153.55 417 1249.67" fill="green" stroke="white" />
<polygon points="418 1249.67 473.5 1153.55 529 1249.67" fill="green" stroke="white" />
<polygon points="530 1249.67 585.5 1153.55 641 1249.67" fill="green" stroke="white" />
<polygon points="642 1249.67 697.5 1153.55 753 1249.67" fill="green" stroke="white" />
<polygon points="754 1249.67 809.5 1153.55 865 1249.67" fill="green" stroke="white" />
<polygon points="866 1249.67 921.5 1153.55 977 1249.67" fill="green" stroke="white" />
<polygon points="978 1249.67 1033.5 1153.55 1089 1249.67" fill="green" stroke="white" />
<polygon points="1090 1249.67 1145.5 1153.55 1201 1249.67" fill="green" stroke="white" />
<polygon points="1202 1249.67 1257.5 1153.55 1313 1249.67" fill="green" stroke="white" />
<polygon points="1314 1249.67 1369.5 1153.55 1425 1249.67" fill="green" stroke="white" />
<polygon points="1426 1249.67 1481.5 1153.55 1537 1249.67" fill="green" stroke="white" />
<polygon points="1538 1249.67 1593.5 1153.55 1649 1249.67" fill="green" stroke="white" />
<polygon points="135 1345.8 190.5 1249.67 246 1345.8" fill="green" stroke="white" />
<polygon points="247 1345.8 302.5 1249.67 358 1345.8" fill="green" stroke="white" />
<polygon points="359 1345.8 414.5 1249.67 470 1345.8" fill="green" stroke="white" />
<polygon points="471 1345.8 526.5 1249.67 582 1345.8" fill="green" stroke="white" />
<polygon points="583 1345.8 638.5 1249.67 694 1345.8" fill="green" stroke="white" />
<polygon points="695 1345.8 750.5 1249.67 806 1345.8" fill="green" stroke="white" />
<polygon points="807 1345.8 862.5 1249.67 918 1345.8" fill="green" stroke="white" />
<polygon points="919 1345.8 974.5 1249.67 1030 1345.8" fill="green" stroke="white" />
<polygon points="1031 1345.8 1086.5 1249.67 1142 1345.8" fill="green" stroke="white" />
<polygon points="1143 1345.8 1198.5 1249.67 1254 1345.8" fill="green" stroke="white" />
<polygon points="1255 1345.8 1310.5 1249.67 1366 1345.8" fill="green" stroke="white" />
<polygon points="1367 1345.8 1422.5 1249.67 1478 1345.8" fill="green" stroke="white" />
<polygon points="1479 1345.8 1534.5 1249.67 1590 1345.8" fill="green" stroke="white" />
<polygon points="204 1441.93 259.5 1345.8 315 1441.93" fill="green" stroke="white" />
<polygon points="316 1441.93 371.5 1345.8 427 1441.93" fill="green" stroke="white" />
<polygon points="428 1441.93 483.5 1345.8 539 1441.93" fill="green" stroke="white" />
<polygon points="540 1441.93 595.5 1345.8 651 1441.93" fill="green" stroke="white" />
<polygon points="652 1441.93 707.5 1345.8 763 1441.93" fill="green" stroke="white" />
<polygon points="764 1441.93 819.5 1345.8 875 1441.93" fill="green" stroke="white" />
<polygon points="876 1441.93 931.5 1345.8 987 1441.93" fill="green" stroke="white" />
<polygon points="988 1441.93 1043.5 1345.8 1099 1441.93" fill="green" stroke="white" />
<polygon points="1100 1441.93 1155.5 1345.8 1211 1441.93" fill="green" stroke="white" />
<polygon points="1212 1441.93 1267.5 1345.8 1323 1441.93" fill="green" stroke="white" />
<polygon points="1324 1441.93 1379.5 1345.8 1435 1441.93" fill="green" stroke="white" />
<polygon points="1436 1441.93 1491.5 1345.8 1547 1441.93" fill="green" stroke="white" />
<polygon points="298 1538.06 353.5 1441.93 409 1538.06" fill="green" stroke="white" />
<polygon points="410 1538.06 465.5 1441.93 521 1538.06" fill="green" stroke="white" />
<polygon points="522 1538.06 577.5 1441.93 633 1538.06" fill="green" stroke="white" />
<polygon points="634 1538.06 689.5 1441.93 745 1538.06" fill="green" stroke="white" />
<polygon points="746 1538.06 801.5 1441.93 857 1538.06" fill="green" stroke="white" />
<polygon points="858 1538.06 913.5 1441.93 969 1538.06" fill="green" stroke="white" />
<polygon points="970 1538.06 1025.5 1441.93 1081 1538.06" fill="green" stroke="white" />
<polygon points="1082 1538.06 1137.5 1441.93 1193 1538.06" fill="green" stroke="white" />
<polygon points="1194 1538.06 1249.5 1441.93 1305 1538.06" fill="green" stroke="white" />
<polygon points="1306 1538.06 1361.5 1441.93 1417 1538.06" fill="green" stroke="white" />
<polygon points="430 1634.19 485.5 1538.06 541 1634.19" fill="green" stroke="white" />
<polygon points="542 1634.19 597.5 1538.06 653 1634.19" fill="green" stroke="white" />
<polygon points="654 1634.19 709.5 1538.06 765 1634.19" fill="green" stroke="white" />
<polygon points="766 1634.19 821.5 1538.06 877 1634.19" fill="green" stroke="white" />
<polygon points="878 1634.19 933.5 1538.06 989 1634.19" fill="green" stroke="white" />
<polygon points="990 1634.19 1045.5 1538.06 1101 1634.19" fill="green" stroke="white" />
<polygon points="1102 1634.19 1157.5 1538.06 1213 1634.19" fill="green" stroke="white" />
<polygon points="1214 1634.19 1269.5 1538.06 1325 1634.19" fill="green" stroke="white" />
<polygon points="661 1730.32 716.5 1634.19 772 1730.32" fill="green" stroke="white" />
<polygon points="773 1730.32 828.5 1634.19 884 1730.32" fill="green" stroke="white" />
<polygon points="885 1730.32 940.5 1634.19 996 1730.32" fill="green" stroke="white" />
<polygon points="479.5 96.1288 590.5 96.1288 535 192.258" fill="green" stroke="white" />
<polygon points="591.5 96.1288 702.5 96.1288 647 192.258" fill="green" stroke="white" />
<polygon points="703.5 96.1288 814.5 96.1288 759 192.258" fill="green" stroke="white" />
<polygon points="815.5 96.1288 926.5 96.1288 871 192.258" fill="green" stroke="white" />
<polygon points="927.5 96.1288 1038.5 96.1288 983 192.258" fill="green" stroke="white" />
<polygon points="1039.5 96.1288 1150.5 96.1288 1095 192.258" fill="green" stroke="white" />
<polygon points="1151.5 96.1288 1262.5 96.1288 1207 192.258" fill="green" stroke="white" />
<polygon points="330.5 192.258 441.5 192.258 386 288.386" fill="green" stroke="white" />
<polygon points="442.5 192.258 553.5 192.258 498 288.386" fill="green" stroke="white" />
<polygon points="554.5 192.258 665.5 192.258 610 288.386" fill="green" stroke="white" />
<polygon points="666.5 192.258 777.5 192.258 722 288.386" fill="green" stroke="white" />
<polygon points="778.5 192.258 889.5 192.258 834 288.386" fill="green" stroke="white" />
<polygon points="890.5 192.258 1001.5 192.258 946 288.386" fill="green" stroke="white" />
<polygon points="1002.5 192.258 1113.5 192.258 1058 288.386" fill="green" stroke="white" />
<polygon points="1114.5 192.258 1225.5 192.258 1170 288.386" fill="green" stroke="white" />
<polygon points="1226.5 192.258 1337.5 192.258 1282 288.386" fill="green" stroke="white" />
<polygon points="228.5 288.386 339.5 288.386 284 384.515" fill="green" stroke="white" />
<polygon points="340.5 288.386 451.5 288.386 396 384.515" fill="green" stroke="white" />
<polygon points="452.5 288.386 563.5 288.386 508 384.515" fill="green" stroke="white" />
<polygon points="564.5 288.386 675.5 288.386 620 384.515" fill="green" stroke="white" />
<polygon points="676.5 288.386 787.5 288.386 732 384.515" fill="green" stroke="white" />
<polygon points="788.5 288.386 899.5 288.386 844 384.515" fill="green" stroke="white" />
<polygon points="900.5 288.386 1011.5 288.386 956 384.515" fill="green" stroke="white" />
<polygon points="1012.5 288.386 1123.5 288.386 1068 384.515" fill="green" stroke="white" />
<polygon points="1124.5 288.386 1235.5 288.386 1180 384.515" fill="green" stroke="white" />
<polygon points="1236.5 288.386 1347.5 288.386 1292 384.515" fill="green" stroke="white" />
<polygon points="1348.5 288.386 1459.5 288.386 1404 384.515" fill="green" stroke="white" />
<polygon points="152.5 384.515 263.5 384.515 208 480.644" fill="green" stroke="white" />
<polygon points="264.5 384.515 375.5 384.515 320 480.644" fill="green" stroke="white" />
<polygon points="376.5 384.515 487.5 384.515 432 480.644" fill="green" stroke="white" />
<polygon points="488.5 384.515 599.5 384.515 544 480.644" fill="green" stroke="white" />
<polygon points="600.5 384.515 711.5 384.515 656 480.644" fill="green" stroke="white" />
<polygon points="712.5 384.515 823.5 384.515 768 480.644" fill="green" stroke="white" />
<polygon points="824.5 384.515 935.5 384.515 880 480.644" fill="green" stroke="white" />
<polygon points="936.5 384.515 1047.5 384.515 992 480.644" fill="green" stroke="white" />
<polygon points="1048.5 384.515 1159.5 384.515 1104 480.644" fill="green" stroke="white" />
<polygon points="1160.5 384.515 1271.5 384.515 1216 480.644" fill="green" stroke="white" />
<polygon points="1272.5 384.515 1383.5 384.515 1328 480.644" fill="green" stroke="white" />
<polygon points="1384.5 384.515 1495.5 384.515 1440 480.644" fill="green" stroke="white" />
<polygon points="109.5 480.644 220.5 480.644 165 576.773" fill="green" stroke="white" />
<polygon points="221.5 480.644 332.5 480.644 277 576.773" fill="green" stroke="white" />
<polygon points="333.5 480.644 444.5 480.644 389 576.773" fill="green" stroke="white" />
<polygon points="445.5 480.644 556.5 480.644 501 576.773" fill="green" stroke="white" />
<polygon points="557.5 480.644 668.5 480.644 613 576.773" fill="green" stroke="white" />
<polygon points="669.5 480.644 780.5 480.644 725 576.773" fill="green" stroke="white" />
<polygon points="781.5 480.644 892.5 480.644 837 576.773" fill="green" stroke="white" />
<polygon points="893.5 480.644 1004.5 480.644 949 576.773" fill="green" stroke="white" />
<polygon points="1005.5 480.644 1116.5 480.644 1061 576.773" fill="green" stroke="white" />
<polygon points="1117.5 480.644 1228.5 480.644 1173 576.773" fill="green" stroke="white" />
<polygon points="1229.5 480.644 1340.5 480.644 1285 576.773" fill="green" stroke="white" />
<polygon points="1341.5 480.644 1452.5 480.644 1397 576.773" fill="green" stroke="white" />
<polygon points="1453.5 480.644 1564.5 480.644 1509 576.773" fill="green" stroke="white" />
<polygon points="80.5 576.773 191.5 576.773 136 672.902" fill="green" stroke="white" />
<polygon points="192.5 576.773 303.5 576.773 248 672.902" fill="green" stroke="white" />
<polygon points="304.5 576.773 415.5 576.773 360 672.902" fill="green" stroke="white" />
<polygon points="416.5 576.773 527.5 576.773 472 672.902" fill="green" stroke="white" />
<polygon points="528.5 576.773 639.5 576.773 584 672.902" fill="green" stroke="white" />
<polygon points="640.5 576.773 751.5 576.773 696 672.902" fill="green" stroke="white" />
<polygon points="752.5 576.773 863.5 576.773 808 672.902" fill="green" stroke="white" />
<polygon points="864.5 576.773 975.5 576.773 920 672.902" fill="green" stroke="white" />
<polygon points="976.5 576.773 1087.5 576.773 1032 672.902" fill="green" stroke="white" />
<polygon points="1088.5 576.773 1199.5 576.773 1144 672.902" fill="green" stroke="white" />
<polygon points="1200.5 576.773 1311.5 576.773 1256 672.902" fill="green" stroke="white" />
<polygon points="1312.5 576.773 1423.5 576.773 1368 672.902" fill="green" stroke="white" />
<polygon points="1424.5 576.773 1535.5 576.773 1480 672.902" fill="green" stroke="white" />
<polygon points="1536.5 576.773 1647.5 576.773 1592 672.902" fill="green" stroke="white" />
<polygon points="62.5 672.902 173.5 672.902 118 769.031" fill="green" stroke="white" />
<polygon points="174.5 672.902 285.5 672.902 230 769.031" fill="green" stroke="white" />
<polygon points="286.5 672.902 397.5 672.902 342 769.031" fill="green" stroke="white" />
<polygon points="398.5 672.902 509.5 672.902 454 769.031" fill="green" stroke="white" />
<polygon points="510.5 672.902 621.5 672.902 566 769.031" fill="green" stroke="white" />
<polygon points="622.5 672.902 733.5 672.902 678 769.031" fill="green" stroke="white" />
<polygon points="734.5 672.902 845.5 672.902 790 769.031" fill="green" stroke="white" />
<polygon points="846.5 672.902 957.5 672.902 902 769.031" fill="green" stroke="white" />
<polygon points="958.5 672.902 1069.5 672.902 1014 769.031" fill="green" stroke="white" />
<polygon points="1070.5 672.902 1181.5 672.902 1126 769.031" fill="green" stroke="white" />
<polygon points="1182.5 672.902 1293.5 672.902 1238 769.031" fill="green" stroke="white" />
<polygon points="1294.5 672.902 1405.5 672.902 1350 769.031" fill="green" stroke="white" />
<polygon points="1406.5 672.902 1517.5 672.902 1462 769.031" fill="green" stroke="white" />
<polygon points="1518.5 672.902 1629.5 672.902 1574 769.031" fill="green" stroke="white" />
<polygon points="56.5 769.031 167.5 769.031 112 865.159" fill="green" stroke="white" />
<polygon points="168.5 769.031 279.5 769.031 224 865.159" fill="green" stroke="white" />
<polygon points="280.5 769.031 391.5 769.031 336 865.159" fill="green" stroke="white" />
<polygon points="392.5 769.031 503.5 769.031 448 865.159" fill="green" stroke="white" />
<polygon points="504.5 769.031 615.5 769.031 560 865.159" fill="green" stroke="white" />
<polygon points="616.5 769.031 727.5 769.031 672 865.159" fill="green" stroke="white" />
<polygon points="728.5 769.031 839.5 769.031 784 865.159" fill="green" stroke="white" />
<polygon points="840.5 769.031 951.5 769.031 896 865.159" fill="green" stroke="white" />
<polygon points="952.5 769.031 1063.5 769.031 1008 865.159" fill="green" stroke="white" />
<polygon points="1064.5 769.031 1175.5 769.031 1120 865.159" fill="green" stroke="white" />
<polygon points="1176.5 769.031 1287.5 769.031 1232 865.159" fill="green" stroke="white" />
<polygon points="1288.5 769.031 1399.5 769.031 1344 865.159" fill="green" stroke="white" />
<polygon points="1400.5 769.031 1511.5 769.031 1456 865.159" fill="green" stroke="white" />
<polygon points="1512.5 769.031 1623.5 769.031 1568 865.159" fill="green" stroke="white" />
<polygon points="1624.5 769.031 1735.5 769.031 1680 865.159" fill="green" stroke="white" />
<polygon points="59.5 865.159 170.5 865.159 115 961.288" fill="green" stroke="white" />
<polygon points="171.5 865.159 282.5 865.159 227 961.288" fill="green" stroke="white" />
<polygon points="283.5 865.159 394.5 865.159 339 961.288" fill="green" stroke="white" />
<polygon points="395.5 865.159 506.5 865.159 451 961.288" fill="green" stroke="white" />
<polygon points="507.5 865.159 618.5 865.159 563 961.288" fill="green" stroke="white" />
<polygon points="619.5 865.159 730.5 865.159 675 961.288" fill="green" stroke="white" />
<polygon points="731.5 865.159 842.5 865.159 787 961.288" fill="green" stroke="white" />
<polygon points="843.5 865.159 954.5 865.159 899 961.288" fill="green" stroke="white" />
<polygon points="955.5 865.159 1066.5 865.159 1011 961.288" fill="green" stroke="white" />
<polygon points="1067.5 865.159 1178.5 865.159 1123 961.288" fill="green" stroke="white" />
<polygon points="1179.5 865.159 1290.5 865.159 1235 961.288" fill="green" stroke="white" />
<polygon points="1291.5 865.159 1402.5 865.159 1347 961.288" fill="green" stroke="white" />
<polygon points="1403.5 865.159 1514.5 865.159 1459 961.288" fill="green" stroke="white" />
<polygon points="1515.5 865.159 1626.5 865.159 1571 961.288" fill="green" stroke="white" />
<polygon points="1627.5 865.159 1738.5 865.159 1683 961.288" fill="green" stroke="white" />
<polygon points="74.5 961.288 185.5 961.288 130 1057.42" fill="green" stroke="white" />
<polygon points="186.5 961.288 297.5 961.288 242 1057.42" fill="green" stroke="white" />
<polygon points="298.5 961.288 409.5 961.288 354 1057.42" fill="green" stroke="white" />
<polygon points="410.5 961.288 521.5 961.288 466 1057.42" fill="green" stroke="white" />
<polygon points="522.5 961.288 633.5 961.288 578 1057.42" fill="green" stroke="white" />
<polygon points="634.5 961.288 745.5 961.288 690 1057.42" fill="green" stroke="white" />
<polygon points="746.5 961.288 857.5 961.288 802 1057.42" fill="green" stroke="white" />
<polygon points="858.5 961.288 969.5 961.288 914 1057.42" fill="green" stroke="white" />
<polygon points="970.5 961.288 1081.5 961.288 1026 1057.42" fill="green" stroke="white" />
<polygon points="1082.5 961.288 1193.5 961.288 1138 1057.42" fill="green" stroke="white" />
<polygon points="1194.5 961.288 1305.5 961.288 1250 1057.42" fill="green" stroke="white" />
<polygon points="1306.5 961.288 1417.5 961.288 1362 1057.42" fill="green" stroke="white" />
<polygon points="1418.5 961.288 1529.5 961.288 1474 1057.42" fill="green" stroke="white" />
<polygon points="1530.5 961.288 1641.5 961.288 1586 1057.42" fill="green" stroke="white" />
<polygon points="1642.5 961.288 1753.5 961.288 1698 1057.42" fill="green" stroke="white" />
<polygon points="99.5 1057.42 210.5 1057.42 155 1153.55" fill="green" stroke="white" />
<polygon points="211.5 1057.42 322.5 1057.42 267 1153.55" fill="green" stroke="white" />
<polygon points="323.5 1057.42 434.5 1057.42 379 1153.55" fill="green" stroke="white" />
<polygon points="435.5 1057.42 546.5 1057.42 491 1153.55" fill="green" stroke="white" />
<polygon points="547.5 1057.42 658.5 1057.42 603 1153.55" fill="green" stroke="white" />
<polygon points="659.5 1057.42 770.5 1057.42 715 1153.55" fill="green" stroke="white" />
<polygon points="771.5 1057.42 882.5 1057.42 827 1153.55" fill="green" stroke="white" />
<polygon points="883.5 1057.42 994.5 1057.42 939 1153.55" fill="green" stroke="white" />
<polygon points="995.5 1057.42 1106.5 1057.42 1051 1153.55" fill="green" stroke="white" />
<polygon points="1107.5 1057.42 1218.5 1057.42 1163 1153.55" fill="green" stroke="white" />
<polygon points="1219.5 1057.42 1330.5 1057.42 1275 1153.55" fill="green" stroke="white" />
<polygon points="1331.5 1057.42 1442.5 1057.42 1387 1153.55" fill="green" stroke="white" />
<polygon points="1443.5 1057.42 1554.5 1057.42 1499 1153.55" fill="green" stroke="white" />
<polygon points="1555.5 1057.42 1666.5 1057.42 1611 1153.55" fill="green" stroke="white" />
<polygon points="137.5 1153.55 248.5 1153.55 193 1249.67" fill="green" stroke="white" />
<polygon points="249.5 1153.55 360.5 1153.55 305 1249.67" fill="green" stroke="white" />
<polygon points="361.5 1153.55 472.5 1153.55 417 1249.67" fill="green" stroke="white" />
<polygon points="473.5 1153.55 584.5 1153.55 529 1249.67" fill="green" stroke="white" />
<polygon points="585.5 1153.55 696.5 1153.55 641 1249.67" fill="green" stroke="white" />
<polygon points="697.5 1153.55 808.5 1153.55 753 1249.67" fill="green" stroke="white" />
<polygon points="809.5 1153.55 920.5 1153.55 865 1249.67" fill="green" stroke="white" />
<polygon points="921.5 1153.55 1032.5 1153.55 977 1249.67" fill="green" stroke="white" />
<polygon points="1033.5 1153.55 1144.5 1153.55 1089 1249.67" fill="green" stroke="white" />
<polygon points="1145.5 1153.55 1256.5 1153.55 1201 1249.67" fill="green" stroke="white" />
<polygon points="1257.5 1153.55 1368.5 1153.55 1313 1249.67" fill="green" stroke="white" />
<polygon points="1369.5 1153.55 1480.5 1153.55 1425 1249.67" fill="green" stroke="white" />
<polygon points="1481.5 1153.55 1592.5 1153.55 1537 1249.67" fill="green" stroke="white" />
<polygon points="1593.5 1153.55 1704.5 1153.55 1649 1249.67" fill="green" stroke="white" />
<polygon points="190.5 1249.67 301.5 1249.67 246 1345.8" fill="green" stroke="white" />
<polygon points="302.5 1249.67 413.5 1249.67 358 1345.8" fill="green" stroke="white" />
<polygon points="414.5 1249.67 525.5 1249.67 470 1345.8" fill="green" stroke="white" />
<polygon points="526.5 1249.67 637.5 1249.67 582 1345.8" fill="green" stroke="white" />
<polygon points="638.5 1249.67 749.5 1249.67 694 1345.8" fill="green" stroke="white" />
<polygon points="750.5 1249.67 861.5 1249.67 806 1345.8" fill="green" stroke="white" />
<polygon points="862.5 1249.67 973.5 1249.67 918 1345.8" fill="green" stroke="white" />
<polygon points="974.5 1249.67 1085.5 1249.67 1030 1345.8" fill="green" stroke="white" />
<polygon points="1086.5 1249.67 1197.5 1249.67 1142 1345.8" fill="green" stroke="white" />
<polygon points="1198.5 1249.67 1309.5 1249.67 1254 1345.8" fill="green" stroke="white" />
<polygon points="1310.5 1249.67 1421.5 1249.67 1366 1345.8" fill="green" stroke="white" />
<polygon points="1422.5 1249.67 1533.5 1249.67 1478 1345.8" fill="green" stroke="white" />
<polygon points="1534.5 1249.67 1645.5 1249.67 1590 1345.8" fill="green" stroke="white" />
<polygon points="259.5 1345.8 370.5 1345.8 315 1441.93" fill="green" stroke="white" />
<polygon points="371.5 1345.8 482.5 1345.8 427 1441.93" fill="green" stroke="white" />
<polygon points="483.5 1345.8 594.5 1345.8 539 1441.93" fill="green" stroke="white" />
<polygon points="595.5 1345.8 706.5 1345.8 651 1441.93" fill="green" stroke="white" />
<polygon points="707.5 1345.8 818.5 1345.8 763 1441.93" fill="green" stroke="white" />
<polygon points="819.5 1345.8 930.5 1345.8 875 1441.93" fill="green" stroke="white" />
<polygon points="931.5 1345.8 1042.5 1345.8 987 1441.93" fill="green" stroke="white" />
<polygon points="1043.5 1345.8 1154.5 1345.8 1099 1441.93" fill="green" stroke="white" />
<polygon points="1155.5 1345.8 1266.5 1345.8 1211 1441.93" fill="green" stroke="white" />
<polygon points="1267.5 1345.8 1378.5 1345.8 1323 1441.93" fill="green" stroke="white" />
<polygon points="1379.5 1345.8 1490.5 1345.8 1435 1441.93" fill="green" stroke="white" />
<polygon points="1491.5 1345.8 1602.5 1345.8 1547 1441.93" fill="green" stroke="white" />
<polygon points="353.5 1441.93 464.5 1441.93 409 1538.06" fill="green" stroke="white" />
<polygon points="465.5 1441.93 576.5 1441.93 521 1538.06" fill="green" stroke="white" />
<polygon points="577.5 1441.93 688.5 1441.93 633 1538.06" fill="green" stroke="white" />
<polygon points="689.5 1441.93 800.5 1441.93 745 1538.06" fill="green" stroke="white" />
<polygon points="801.5 1441.93 912.5 1441.93 857 1538.06" fill="green" stroke="white" />
<polygon points="913.5 1441.93 1024.5 1441.93 969 1538.06" fill="green" stroke="white" />
<polygon points="1025.5 1441.93 1136.5 1441.93 1081 1538.06" fill="green" stroke="white" />
<polygon points="1137.5 1441.93 1248.5 1441.93 1193 1538.06" fill="green" stroke="white" />
<polygon points="1249.5 1441.93 1360.5 1441.93 1305 1538.06" fill="green" stroke="white" />
<polygon points="1361.5 1441.93 1472.5 1441.93 1417 1538.06" fill="green" stroke="white" />
<polygon points="485.5 1538.06 596.5 1538.06 541 1634.19" fill="green" stroke="white" />
<polygon points="597.5 1538.06 708.5 1538.06 653 1634.19" fill="green" stroke="white" />
<polygon points="709.5 1538.06 820.5 1538.06 765 1634.19" fill="green" stroke="white" />
<polygon points="821.5 1538.06 932.5 1538.06 877 1634.19" fill="green" stroke="white" />
<polygon points="933.5 1538.06 1044.5 1538.06 989 1634.19" fill="green" stroke="white" />
<polygon points="1045.5 1538.06 1156.5 1538.06 1101 1634.19" fill="green" stroke="white" />
<polygon points="1157.5 1538.06 1268.5 1538.06 1213 1634.19" fill="green" stroke="white" />
<polygon points="1269.5 1538.06 1380.5 1538.06 1325 1634.19" fill="green" stroke="white" />
<polygon points="716.5 1634.19 827.5 1634.19 772 1730.32" fill="green" stroke="white" />
<polygon points="828.5 1634.19 939.5 1634.19 884 1730.32" fill="green" stroke="white" />
<polygon points="940.5 1634.19 1051.5 1634.19 996 1730.32" fill="green" stroke="white" />

</svg>