<svg viewBox="1.1"
baseProfile="full"
xmlns="http://www.w3.org/2000/svg">
<circle cx="879" cy="879" r="879" fill="red" stroke="white" />
<circle cx="592" cy="101.086" r="37" fill="green" stroke="black" />
<circle cx="666" cy="101.086" r="37" fill="green" stroke="black" />
<circle cx="740" cy="101.086" r="37" fill="green" stroke="black" />
<circle cx="814" cy="101.086" r="37" fill="green" stroke="black" />
<circle cx="888" cy="101.086" r="37" fill="green" stroke="black" />
<circle cx="962" cy="101.086" r="37" fill="green" stroke="black" />
<circle cx="1036" cy="101.086" r="37" fill="green" stroke="black" />
<circle cx="1110" cy="101.086" r="37" fill="green" stroke="black" />
<circle cx="1184" cy="101.086" r="37" fill="green" stroke="black" />
<circle cx="481" cy="165.172" r="37" fill="green" stroke="black" />
<circle cx="555" cy="165.172" r="37" fill="green" stroke="black" />
<circle cx="629" cy="165.172" r="37" fill="green" stroke="black" />
<circle cx="703" cy="165.172" r="37" fill="green" stroke="black" />
<circle cx="777" cy="165.172" r="37" fill="green" stroke="black" />
<circle cx="851" cy="165.172" r="37" fill="green" stroke="black" />
<circle cx="925" cy="165.172" r="37" fill="green" stroke="black" />
<circle cx="999" cy="165.172" r="37" fill="green" stroke="black" />
<circle cx="1073" cy="165.172" r="37" fill="green" stroke="black" />
<circle cx="1147" cy="165.172" r="37" fill="green" stroke="black" />
<circle cx="1221" cy="165.172" r="37" fill="green" stroke="black" />
<circle cx="1295" cy="165.172" r="37" fill="green" stroke="black" />
<circle cx="370" cy="229.258" r="37" fill="green" stroke="black" />
<circle cx="444" cy="229.258" r="37" fill="green" stroke="black" />
<circle cx="518" cy="229.258" r="37" fill="green" stroke="black" />
<circle cx="592" cy="229.258" r="37" fill="green" stroke="black" />
<circle cx="666" cy="229.258" r="37" fill="green" stroke="black" />
<circle cx="740" cy="229.258" r="37" fill="green" stroke="black" />
<circle cx="814" cy="229.258" r="37" fill="green" stroke="black" />
<circle cx="888" cy="229.258" r="37" fill="green" stroke="black" />
<circle cx="962" cy="229.258" r="37" fill="green" stroke="black" />
<circle cx="1036" cy="229.258" r="37" fill="green" stroke="black" />
<circle cx="1110" cy="229.258" r="37" fill="green" stroke="black" />
<circle cx="1184" cy="229.258" r="37" fill="green" stroke="black" />
<circle cx="1258" cy="229.258" r="37" fill="green" stroke="black" />
<circle cx="1332" cy="229.258" r="37" fill="green" stroke="black" />
<circle cx="1406" cy="229.258" r="37" fill="green" stroke="black" />
<circle cx="333" cy="293.344" r="37" fill="green" stroke="black" />
<circle cx="407" cy="293.344" r="37" fill="green" stroke="black" />
<circle cx="481" cy="293.344" r="37" fill="green" stroke="black" />
<circle cx="555" cy="293.344" r="37" fill="green" stroke="black" />
<circle cx="629" cy="293.344" r="37" fill="green" stroke="black" />
<circle cx="703" cy="293.344" r="37" fill="green" stroke="black" />
<circle cx="777" cy="293.344" r="37" fill="green" stroke="black" />
<circle cx="851" cy="293.344" r="37" fill="green" stroke="black" />
<circle cx="925" cy="293.344" r="37" fill="green" stroke="black" />
<circle cx="999" cy="293.344" r="37" fill="green" stroke="black" />
<circle cx="1073" cy="293.344" r="37" fill="green" stroke="black" />
<circle cx="1147" cy="293.344" r="37" fill="green" stroke="black" />
<circle cx="1221" cy="293.344" r="37" fill="green" stroke="black" />
<circle cx="1295" cy="293.344" r="37" fill="green" stroke="black" />
<circle cx="1369" cy="293.344" r="37" fill="green" stroke="black" />
<circle cx="1443" cy="293.344" r="37" fill="green" stroke="black" />
<circle cx="222" cy="357.429" r="37" fill="green" stroke="black" />
<circle cx="296" cy="357.429" r="37" fill="green" stroke="black" />
<circle cx="370" cy="357.429" r="37" fill="green" stroke="black" />
<circle cx="444" cy="357.429" r="37" fill="green" stroke="black" />
<circle cx="518" cy="357.429" r="37" fill="green" stroke="black" />
<circle cx="592" cy="357.429" r="37" fill="green" stroke="black" />
<circle cx="666" cy="357.429" r="37" fill="green" stroke="black" />
<circle cx="740" cy="357.429" r="37" fill="green" stroke="black" />
<circle cx="814" cy="357.429" r="37" fill="green" stroke="black" />
<circle cx="888" cy="357.429" r="37" fill="green" stroke="black" />
<circle cx="962" cy="357.429" r="37" fill="green" stroke="black" />
<circle cx="1036" cy="357.429" r="37" fill="green" stroke="black" />
<circle cx="1110" cy="357.429" r="37" fill="green" stroke="black" />
<circle cx="1184" cy="357.429" r="37" fill="green" stroke="black" />
<circle cx="1258" cy="357.429" r="37" fill="green" stroke="black" />
<circle cx="1332" cy="357.429" r="37" fill="green" stroke="black" />
<circle cx="1406" cy="357.429" r="37" fill="green" stroke="black" />
<circle cx="1480" cy="357.429" r="37" fill="green" stroke="black" />
<circle cx="185" cy="421.515" r="37" fill="green" stroke="black" />
<circle cx="259" cy="421.515" r="37" fill="green" stroke="black" />
<circle cx="333" cy="421.515" r="37" fill="green" stroke="black" />
<circle cx="407" cy="421.515" r="37" fill="green" stroke="black" />
<circle cx="481" cy="421.515" r="37" fill="green" stroke="black" />
<circle cx="555" cy="421.515" r="37" fill="green" stroke="black" />
<circle cx="629" cy="421.515" r="37" fill="green" stroke="black" />
<circle cx="703" cy="421.515" r="37" fill="green" stroke="black" />
<circle cx="777" cy="421.515" r="37" fill="green" stroke="black" />
<circle cx="851" cy="421.515" r="37" fill="green" stroke="black" />
<circle cx="925" cy="421.515" r="37" fill="green" stroke="black" />
<circle cx="999" cy="421.515" r="37" fill="green" stroke="black" />
<circle cx="1073" cy="421.515" r="37" fill="green" stroke="black" />
<circle cx="1147" cy="421.515" r="37" fill="green" stroke="black" />
<circle cx="1221" cy="421.515" r="37" fill="green" stroke="black" />
<circle cx="1295" cy="421.515" r="37" fill="green" stroke="black" />
<circle cx="1369" cy="421.515" r="37" fill="green" stroke="black" />
<circle cx="1443" cy="421.515" r="37" fill="green" stroke="black" />
<circle cx="1517" cy="421.515" r="37" fill="green" stroke="black" />
<circle cx="148" cy="485.601" r="37" fill="green" stroke="black" />
<circle cx="222" cy="485.601" r="37" fill="green" stroke="black" />
<circle cx="296" cy="485.601" r="37" fill="green" stroke="black" />
<circle cx="370" cy="485.601" r="37" fill="green" stroke="black" />
<circle cx="444" cy="485.601" r="37" fill="green" stroke="black" />
<circle cx="518" cy="485.601" r="37" fill="green" stroke="black" />
<circle cx="592" cy="485.601" r="37" fill="green" stroke="black" />
<circle cx="666" cy="485.601" r="37" fill="green" stroke="black" />
<circle cx="740" cy="485.601" r="37" fill="green" stroke="black" />
<circle cx="814" cy="485.601" r="37" fill="green" stroke="black" />
<circle cx="888" cy="485.601" r="37" fill="green" stroke="black" />
<circle cx="962" cy="485.601" r="37" fill="green" stroke="black" />
<circle cx="1036" cy="485.601" r="37" fill="green" stroke="black" />
<circle cx="1110" cy="485.601" r="37" fill="green" stroke="black" />
<circle cx="1184" cy="485.601" r="37" fill="green" stroke="black" />
<circle cx="1258" cy="485.601" r="37" fill="green" stroke="black" />
<circle cx="1332" cy="485.601" r="37" fill="green" stroke="black" />
<circle cx="1406" cy="485.601" r="37" fill="green" stroke="black" />
<circle cx="1480" cy="485.601" r="37" fill="green" stroke="black" />
<circle cx="1554" cy="485.601" r="37" fill="green" stroke="black" />
<circle cx="111" cy="549.687" r="37" fill="green" stroke="black" />
<circle cx="185" cy="549.687" r="37" fill="green" stroke="black" />
<circle cx="259" cy="549.687" r="37" fill="green" stroke="black" />
<circle cx="333" cy="549.687" r="37" fill="green" stroke="black" />
<circle cx="407" cy="549.687" r="37" fill="green" stroke="black" />
<circle cx="481" cy="549.687" r="37" fill="green" stroke="black" />
<circle cx="555" cy="549.687" r="37" fill="green" stroke="black" />
<circle cx="629" cy="549.687" r="37" fill="green" stroke="black" />
<circle cx="703" cy="549.687" r="37" fill="green" stroke="black" />
<circle cx="777" cy="549.687" r="37" fill="green" stroke="black" />
<circle cx="851" cy="549.687" r="37" fill="green" stroke="black" />
<circle cx="925" cy="549.687" r="37" fill="green" stroke="black" />
<circle cx="999" cy="549.687" r="37" fill="green" stroke="black" />
<circle cx="1073" cy="549.687" r="37" fill="green" stroke="black" />
<circle cx="1147" cy="549.687" r="37" fill="green" stroke="black" />
<circle cx="1221" cy="549.687" r="37" fill="green" stroke="black" />
<circle cx="1295" cy="549.687" r="37" fill="green" stroke="black" />
<circle cx="1369" cy="549.687" r="37" fill="green" stroke="black" />
<circle cx="1443" cy="549.687" r="37" fill="green" stroke="black" />
<circle cx="1517" cy="549.687" r="37" fill="green" stroke="black" />
<circle cx="1591" cy="549.687" r="37" fill="green" stroke="black" />
<circle cx="148" cy="613.773" r="37" fill="green" stroke="black" />
<circle cx="222" cy="613.773" r="37" fill="green" stroke="black" />
<circle cx="296" cy="613.773" r="37" fill="green" stroke="black" />
<circle cx="370" cy="613.773" r="37" fill="green" stroke="black" />
<circle cx="444" cy="613.773" r="37" fill="green" stroke="black" />
<circle cx="518" cy="613.773" r="37" fill="green" stroke="black" />
<circle cx="592" cy="613.773" r="37" fill="green" stroke="black" />
<circle cx="666" cy="613.773" r="37" fill="green" stroke="black" />
<circle cx="740" cy="613.773" r="37" fill="green" stroke="black" />
<circle cx="814" cy="613.773" r="37" fill="green" stroke="black" />
<circle cx="888" cy="613.773" r="37" fill="green" stroke="black" />
<circle cx="962" cy="613.773" r="37" fill="green" stroke="black" />
<circle cx="1036" cy="613.773" r="37" fill="green" stroke="black" />
<circle cx="1110" cy="613.773" r="37" fill="green" stroke="black" />
<circle cx="1184" cy="613.773" r="37" fill="green" stroke="black" />
<circle cx="1258" cy="613.773" r="37" fill="green" stroke="black" />
<circle cx="1332" cy="613.773" r="37" fill="green" stroke="black" />
<circle cx="1406" cy="613.773" r="37" fill="green" stroke="black" />
<circle cx="1480" cy="613.773" r="37" fill="green" stroke="black" />
<circle cx="1554" cy="613.773" r="37" fill="green" stroke="black" />
<circle cx="1628" cy="613.773" r="37" fill="green" stroke="black" />
<circle cx="111" cy="677.859" r="37" fill="green" stroke="black" />
<circle cx="185" cy="677.859" r="37" fill="green" stroke="black" />
<circle cx="259" cy="677.859" r="37" fill="green" stroke="black" />
<circle cx="333" cy="677.859" r="37" fill="green" stroke="black" />
<circle cx="407" cy="677.859" r="37" fill="green" stroke="black" />
<circle cx="481" cy="677.859" r="37" fill="green" stroke="black" />
<circle cx="555" cy="677.859" r="37" fill="green" stroke="black" />
<circle cx="629" cy="677.859" r="37" fill="green" stroke="black" />
<circle cx="703" cy="677.859" r="37" fill="green" stroke="black" />
<circle cx="777" cy="677.859" r="37" fill="green" stroke="black" />
<circle cx="851" cy="677.859" r="37" fill="green" stroke="black" />
<circle cx="925" cy="677.859" r="37" fill="green" stroke="black" />
<circle cx="999" cy="677.859" r="37" fill="green" stroke="black" />
<circle cx="1073" cy="677.859" r="37" fill="green" stroke="black" />
<circle cx="1147" cy="677.859" r="37" fill="green" stroke="black" />
<circle cx="1221" cy="677.859" r="37" fill="green" stroke="black" />
<circle cx="1295" cy="677.859" r="37" fill="green" stroke="black" />
<circle cx="1369" cy="677.859" r="37" fill="green" stroke="black" />
<circle cx="1443" cy="677.859" r="37" fill="green" stroke="black" />
<circle cx="1517" cy="677.859" r="37" fill="green" stroke="black" />
<circle cx="1591" cy="677.859" r="37" fill="green" stroke="black" />
<circle cx="1665" cy="677.859" r="37" fill="green" stroke="black" />
<circle cx="74" cy="741.945" r="37" fill="green" stroke="black" />
<circle cx="148" cy="741.945" r="37" fill="green" stroke="black" />
<circle cx="222" cy="741.945" r="37" fill="green" stroke="black" />
<circle cx="296" cy="741.945" r="37" fill="green" stroke="black" />
<circle cx="370" cy="741.945" r="37" fill="green" stroke="black" />
<circle cx="444" cy="741.945" r="37" fill="green" stroke="black" />
<circle cx="518" cy="741.945" r="37" fill="green" stroke="black" />
<circle cx="592" cy="741.945" r="37" fill="green" stroke="black" />
<circle cx="666" cy="741.945" r="37" fill="green" stroke="black" />
<circle cx="740" cy="741.945" r="37" fill="green" stroke="black" />
<circle cx="814" cy="741.945" r="37" fill="green" stroke="black" />
<circle cx="888" cy="741.945" r="37" fill="green" stroke="black" />
<circle cx="962" cy="741.945" r="37" fill="green" stroke="black" />
<circle cx="1036" cy="741.945" r="37" fill="green" stroke="black" />
<circle cx="1110" cy="741.945" r="37" fill="green" stroke="black" />
<circle cx="1184" cy="741.945" r="37" fill="green" stroke="black" />
<circle cx="1258" cy="741.945" r="37" fill="green" stroke="black" />
<circle cx="1332" cy="741.945" r="37" fill="green" stroke="black" />
<circle cx="1406" cy="741.945" r="37" fill="green" stroke="black" />
<circle cx="1480" cy="741.945" r="37" fill="green" stroke="black" />
<circle cx="1554" cy="741.945" r="37" fill="green" stroke="black" />
<circle cx="1628" cy="741.945" r="37" fill="green" stroke="black" />
<circle cx="1702" cy="741.945" r="37" fill="green" stroke="black" />
<circle cx="111" cy="806.031" r="37" fill="green" stroke="black" />
<circle cx="185" cy="806.031" r="37" fill="green" stroke="black" />
<circle cx="259" cy="806.031" r="37" fill="green" stroke="black" />
<circle cx="333" cy="806.031" r="37" fill="green" stroke="black" />
<circle cx="407" cy="806.031" r="37" fill="green" stroke="black" />
<circle cx="481" cy="806.031" r="37" fill="green" stroke="black" />
<circle cx="555" cy="806.031" r="37" fill="green" stroke="black" />
<circle cx="629" cy="806.031" r="37" fill="green" stroke="black" />
<circle cx="703" cy="806.031" r="37" fill="green" stroke="black" />
<circle cx="777" cy="806.031" r="37" fill="green" stroke="black" />
<circle cx="851" cy="806.031" r="37" fill="green" stroke="black" />
<circle cx="925" cy="806.031" r="37" fill="green" stroke="black" />
<circle cx="999" cy="806.031" r="37" fill="green" stroke="black" />
<circle cx="1073" cy="806.031" r="37" fill="green" stroke="black" />
<circle cx="1147" cy="806.031" r="37" fill="green" stroke="black" />
<circle cx="1221" cy="806.031" r="37" fill="green" stroke="black" />
<circle cx="1295" cy="806.031" r="37" fill="green" stroke="black" />
<circle cx="1369" cy="806.031" r="37" fill="green" stroke="black" />
<circle cx="1443" cy="806.031" r="37" fill="green" stroke="black" />
<circle cx="1517" cy="806.031" r="37" fill="green" stroke="black" />
<circle cx="1591" cy="806.031" r="37" fill="green" stroke="black" />
<circle cx="1665" cy="806.031" r="37" fill="green" stroke="black" />
<circle cx="74" cy="870.116" r="37" fill="green" stroke="black" />
<circle cx="148" cy="870.116" r="37" fill="green" stroke="black" />
<circle cx="222" cy="870.116" r="37" fill="green" stroke="black" />
<circle cx="296" cy="870.116" r="37" fill="green" stroke="black" />
<circle cx="370" cy="870.116" r="37" fill="green" stroke="black" />
<circle cx="444" cy="870.116" r="37" fill="green" stroke="black" />
<circle cx="518" cy="870.116" r="37" fill="green" stroke="black" />
<circle cx="592" cy="870.116" r="37" fill="green" stroke="black" />
<circle cx="666" cy="870.116" r="37" fill="green" stroke="black" />
<circle cx="740" cy="870.116" r="37" fill="green" stroke="black" />
<circle cx="814" cy="870.116" r="37" fill="green" stroke="black" />
<circle cx="888" cy="870.116" r="37" fill="green" stroke="black" />
<circle cx="962" cy="870.116" r="37" fill="green" stroke="black" />
<circle cx="1036" cy="870.116" r="37" fill="green" stroke="black" />
<circle cx="1110" cy="870.116" r="37" fill="green" stroke="black" />
<circle cx="1184" cy="870.116" r="37" fill="green" stroke="black" />
<circle cx="1258" cy="870.116" r="37" fill="green" stroke="black" />
<circle cx="1332" cy="870.116" r="37" fill="green" stroke="black" />
<circle cx="1406" cy="870.116" r="37" fill="green" stroke="black" />
<circle cx="1480" cy="870.116" r="37" fill="green" stroke="black" />
<circle cx="1554" cy="870.116" r="37" fill="green" stroke="black" />
<circle cx="1628" cy="870.116" r="37" fill="green" stroke="black" />
<circle cx="1702" cy="870.116" r="37" fill="green" stroke="black" />
<circle cx="111" cy="934.202" r="37" fill="green" stroke="black" />
<circle cx="185" cy="934.202" r="37" fill="green" stroke="black" />
<circle cx="259" cy="934.202" r="37" fill="green" stroke="black" />
<circle cx="333" cy="934.202" r="37" fill="green" stroke="black" />
<circle cx="407" cy="934.202" r="37" fill="green" stroke="black" />
<circle cx="481" cy="934.202" r="37" fill="green" stroke="black" />
<circle cx="555" cy="934.202" r="37" fill="green" stroke="black" />
<circle cx="629" cy="934.202" r="37" fill="green" stroke="black" />
<circle cx="703" cy="934.202" r="37" fill="green" stroke="black" />
<circle cx="777" cy="934.202" r="37" fill="green" stroke="black" />
<circle cx="851" cy="934.202" r="37" fill="green" stroke="black" />
<circle cx="925" cy="934.202" r="37" fill="green" stroke="black" />
<circle cx="999" cy="934.202" r="37" fill="green" stroke="black" />
<circle cx="1073" cy="934.202" r="37" fill="green" stroke="black" />
<circle cx="1147" cy="934.202" r="37" fill="green" stroke="black" />
<circle cx="1221" cy="934.202" r="37" fill="green" stroke="black" />
<circle cx="1295" cy="934.202" r="37" fill="green" stroke="black" />
<circle cx="1369" cy="934.202" r="37" fill="green" stroke="black" />
<circle cx="1443" cy="934.202" r="37" fill="green" stroke="black" />
<circle cx="1517" cy="934.202" r="37" fill="green" stroke="black" />
<circle cx="1591" cy="934.202" r="37" fill="green" stroke="black" />
<circle cx="1665" cy="934.202" r="37" fill="green" stroke="black" />
<circle cx="74" cy="998.288" r="37" fill="green" stroke="black" />
<circle cx="148" cy="998.288" r="37" fill="green" stroke="black" />
<circle cx="222" cy="998.288" r="37" fill="green" stroke="black" />
<circle cx="296" cy="998.288" r="37" fill="green" stroke="black" />
<circle cx="370" cy="998.288" r="37" fill="green" stroke="black" />
<circle cx="444" cy="998.288" r="37" fill="green" stroke="black" />
<circle cx="518" cy="998.288" r="37" fill="green" stroke="black" />
<circle cx="592" cy="998.288" r="37" fill="green" stroke="black" />
<circle cx="666" cy="998.288" r="37" fill="green" stroke="black" />
<circle cx="740" cy="998.288" r="37" fill="green" stroke="black" />
<circle cx="814" cy="998.288" r="37" fill="green" stroke="black" />
<circle cx="888" cy="998.288" r="37" fill="green" stroke="black" />
<circle cx="962" cy="998.288" r="37" fill="green" stroke="black" />
<circle cx="1036" cy="998.288" r="37" fill="green" stroke="black" />
<circle cx="1110" cy="998.288" r="37" fill="green" stroke="black" />
<circle cx="1184" cy="998.288" r="37" fill="green" stroke="black" />
<circle cx="1258" cy="998.288" r="37" fill="green" stroke="black" />
<circle cx="1332" cy="998.288" r="37" fill="green" stroke="black" />
<circle cx="1406" cy="998.288" r="37" fill="green" stroke="black" />
<circle cx="1480" cy="998.288" r="37" fill="green" stroke="black" />
<circle cx="1554" cy="998.288" r="37" fill="green" stroke="black" />
<circle cx="1628" cy="998.288" r="37" fill="green" stroke="black" />
<circle cx="1702" cy="998.288" r="37" fill="green" stroke="black" />
<circle cx="111" cy="1062.37" r="37" fill="green" stroke="black" />
<circle cx="185" cy="1062.37" r="37" fill="green" stroke="black" />
<circle cx="259" cy="1062.37" r="37" fill="green" stroke="black" />
<circle cx="333" cy="1062.37" r="37" fill="green" stroke="black" />
<circle cx="407" cy="1062.37" r="37" fill="green" stroke="black" />
<circle cx="481" cy="1062.37" r="37" fill="green" stroke="black" />
<circle cx="555" cy="1062.37" r="37" fill="green" stroke="black" />
<circle cx="629" cy="1062.37" r="37" fill="green" stroke="black" />
<circle cx="703" cy="1062.37" r="37" fill="green" stroke="black" />
<circle cx="777" cy="1062.37" r="37" fill="green" stroke="black" />
<circle cx="851" cy="1062.37" r="37" fill="green" stroke="black" />
<circle cx="925" cy="1062.37" r="37" fill="green" stroke="black" />
<circle cx="999" cy="1062.37" r="37" fill="green" stroke="black" />
<circle cx="1073" cy="1062.37" r="37" fill="green" stroke="black" />
<circle cx="1147" cy="1062.37" r="37" fill="green" stroke="black" />
<circle cx="1221" cy="1062.37" r="37" fill="green" stroke="black" />
<circle cx="1295" cy="1062.37" r="37" fill="green" stroke="black" />
<circle cx="1369" cy="1062.37" r="37" fill="green" stroke="black" />
<circle cx="1443" cy="1062.37" r="37" fill="green" stroke="black" />
<circle cx="1517" cy="1062.37" r="37" fill="green" stroke="black" />
<circle cx="1591" cy="1062.37" r="37" fill="green" stroke="black" />
<circle cx="1665" cy="1062.37" r="37" fill="green" stroke="black" />
<circle cx="148" cy="1126.46" r="37" fill="green" stroke="black" />
<circle cx="222" cy="1126.46" r="37" fill="green" stroke="black" />
<circle cx="296" cy="1126.46" r="37" fill="green" stroke="black" />
<circle cx="370" cy="1126.46" r="37" fill="green" stroke="black" />
<circle cx="444" cy="1126.46" r="37" fill="green" stroke="black" />
<circle cx="518" cy="1126.46" r="37" fill="green" stroke="black" />
<circle cx="592" cy="1126.46" r="37" fill="green" stroke="black" />
<circle cx="666" cy="1126.46" r="37" fill="green" stroke="black" />
<circle cx="740" cy="1126.46" r="37" fill="green" stroke="black" />
<circle cx="814" cy="1126.46" r="37" fill="green" stroke="black" />
<circle cx="888" cy="1126.46" r="37" fill="green" stroke="black" />
<circle cx="962" cy="1126.46" r="37" fill="green" stroke="black" />
<circle cx="1036" cy="1126.46" r="37" fill="green" stroke="black" />
<circle cx="1110" cy="1126.46" r="37" fill="green" stroke="black" />
<circle cx="1184" cy="1126.46" r="37" fill="green" stroke="black" />
<circle cx="1258" cy="1126.46" r="37" fill="green" stroke="black" />
<circle cx="1332" cy="1126.46" r="37" fill="green" stroke="black" />
<circle cx="1406" cy="1126.46" r="37" fill="green" stroke="black" />
<circle cx="1480" cy="1126.46" r="37" fill="green" stroke="black" />
<circle cx="1554" cy="1126.46" r="37" fill="green" stroke="black" />
<circle cx="1628" cy="1126.46" r="37" fill="green" stroke="black" />
<circle cx="111" cy="1190.55" r="37" fill="green" stroke="black" />
<circle cx="185" cy="1190.55" r="37" fill="green" stroke="black" />
<circle cx="259" cy="1190.55" r="37" fill="green" stroke="black" />
<circle cx="333" cy="1190.55" r="37" fill="green" stroke="black" />
<circle cx="407" cy="1190.55" r="37" fill="green" stroke="black" />
<circle cx="481" cy="1190.55" r="37" fill="green" stroke="black" />
<circle cx="555" cy="1190.55" r="37" fill="green" stroke="black" />
<circle cx="629" cy="1190.55" r="37" fill="green" stroke="black" />
<circle cx="703" cy="1190.55" r="37" fill="green" stroke="black" />
<circle cx="777" cy="1190.55" r="37" fill="green" stroke="black" />
<circle cx="851" cy="1190.55" r="37" fill="green" stroke="black" />
<circle cx="925" cy="1190.55" r="37" fill="green" stroke="black" />
<circle cx="999" cy="1190.55" r="37" fill="green" stroke="black" />
<circle cx="1073" cy="1190.55" r="37" fill="green" stroke="black" />
<circle cx="1147" cy="1190.55" r="37" fill="green" stroke="black" />
<circle cx="1221" cy="1190.55" r="37" fill="green" stroke="black" />
<circle cx="1295" cy="1190.55" r="37" fill="green" stroke="black" />
<circle cx="1369" cy="1190.55" r="37" fill="green" stroke="black" />
<circle cx="1443" cy="1190.55" r="37" fill="green" stroke="black" />
<circle cx="1517" cy="1190.55" r="37" fill="green" stroke="black" />
<circle cx="1591" cy="1190.55" r="37" fill="green" stroke="black" />
<circle cx="148" cy="1254.63" r="37" fill="green" stroke="black" />
<circle cx="222" cy="1254.63" r="37" fill="green" stroke="black" />
<circle cx="296" cy="1254.63" r="37" fill="green" stroke="black" />
<circle cx="370" cy="1254.63" r="37" fill="green" stroke="black" />
<circle cx="444" cy="1254.63" r="37" fill="green" stroke="black" />
<circle cx="518" cy="1254.63" r="37" fill="green" stroke="black" />
<circle cx="592" cy="1254.63" r="37" fill="green" stroke="black" />
<circle cx="666" cy="1254.63" r="37" fill="green" stroke="black" />
<circle cx="740" cy="1254.63" r="37" fill="green" stroke="black" />
<circle cx="814" cy="1254.63" r="37" fill="green" stroke="black" />
<circle cx="888" cy="1254.63" r="37" fill="green" stroke="black" />
<circle cx="962" cy="1254.63" r="37" fill="green" stroke="black" />
<circle cx="1036" cy="1254.63" r="37" fill="green" stroke="black" />
<circle cx="1110" cy="1254.63" r="37" fill="green" stroke="black" />
<circle cx="1184" cy="1254.63" r="37" fill="green" stroke="black" />
<circle cx="1258" cy="1254.63" r="37" fill="green" stroke="black" />
<circle cx="1332" cy="1254.63" r="37" fill="green" stroke="black" />
<circle cx="1406" cy="1254.63" r="37" fill="green" stroke="black" />
<circle cx="1480" cy="1254.63" r="37" fill="green" stroke="black" />
<circle cx="1554" cy="1254.63" r="37" fill="green" stroke="black" />
<circle cx="1628" cy="1254.63" r="37" fill="green" stroke="black" />
<circle cx="185" cy="1318.72" r="37" fill="green" stroke="black" />
<circle cx="259" cy="1318.72" r="37" fill="green" stroke="black" />
<circle cx="333" cy="1318.72" r="37" fill="green" stroke="black" />
<circle cx="407" cy="1318.72" r="37" fill="green" stroke="black" />
<circle cx="481" cy="1318.72" r="37" fill="green" stroke="black" />
<circle cx="555" cy="1318.72" r="37" fill="green" stroke="black" />
<circle cx="629" cy="1318.72" r="37" fill="green" stroke="black" />
<circle cx="703" cy="1318.72" r="37" fill="green" stroke="black" />
<circle cx="777" cy="1318.72" r="37" fill="green" stroke="black" />
<circle cx="851" cy="1318.72" r="37" fill="green" stroke="black" />
<circle cx="925" cy="1318.72" r="37" fill="green" stroke="black" />
<circle cx="999" cy="1318.72" r="37" fill="green" stroke="black" />
<circle cx="1073" cy="1318.72" r="37" fill="green" stroke="black" />
<circle cx="1147" cy="1318.72" r="37" fill="green" stroke="black" />
<circle cx="1221" cy="1318.72" r="37" fill="green" stroke="black" />
<circle cx="1295" cy="1318.72" r="37" fill="green" stroke="black" />
<circle cx="1369" cy="1318.72" r="37" fill="green" stroke="black" />
<circle cx="1443" cy="1318.72" r="37" fill="green" stroke="black" />
<circle cx="1517" cy="1318.72" r="37" fill="green" stroke="black" />
<circle cx="1591" cy="1318.72" r="37" fill="green" stroke="black" />
<circle cx="222" cy="1382.8" r="37" fill="green" stroke="black" />
<circle cx="296" cy="1382.8" r="37" fill="green" stroke="black" />
<circle cx="370" cy="1382.8" r="37" fill="green" stroke="black" />
<circle cx="444" cy="1382.8" r="37" fill="green" stroke="black" />
<circle cx="518" cy="1382.8" r="37" fill="green" stroke="black" />
<circle cx="592" cy="1382.8" r="37" fill="green" stroke="black" />
<circle cx="666" cy="1382.8" r="37" fill="green" stroke="black" />
<circle cx="740" cy="1382.8" r="37" fill="green" stroke="black" />
<circle cx="814" cy="1382.8" r="37" fill="green" stroke="black" />
<circle cx="888" cy="1382.8" r="37" fill="green" stroke="black" />
<circle cx="962" cy="1382.8" r="37" fill="green" stroke="black" />
<circle cx="1036" cy="1382.8" r="37" fill="green" stroke="black" />
<circle cx="1110" cy="1382.8" r="37" fill="green" stroke="black" />
<circle cx="1184" cy="1382.8" r="37" fill="green" stroke="black" />
<circle cx="1258" cy="1382.8" r="37" fill="green" stroke="black" />
<circle cx="1332" cy="1382.8" r="37" fill="green" stroke="black" />
<circle cx="1406" cy="1382.8" r="37" fill="green" stroke="black" />
<circle cx="1480" cy="1382.8" r="37" fill="green" stroke="black" />
<circle cx="259" cy="1446.89" r="37" fill="green" stroke="black" />
<circle cx="333" cy="1446.89" r="37" fill="green" stroke="black" />
<circle cx="407" cy="1446.89" r="37" fill="green" stroke="black" />
<circle cx="481" cy="1446.89" r="37" fill="green" stroke="black" />
<circle cx="555" cy="1446.89" r="37" fill="green" stroke="black" />
<circle cx="629" cy="1446.89" r="37" fill="green" stroke="black" />
<circle cx="703" cy="1446.89" r="37" fill="green" stroke="black" />
<circle cx="777" cy="1446.89" r="37" fill="green" stroke="black" />
<circle cx="851" cy="1446.89" r="37" fill="green" stroke="black" />
<circle cx="925" cy="1446.89" r="37" fill="green" stroke="black" />
<circle cx="999" cy="1446.89" r="37" fill="green" stroke="black" />
<circle cx="1073" cy="1446.89" r="37" fill="green" stroke="black" />
<circle cx="1147" cy="1446.89" r="37" fill="green" stroke="black" />
<circle cx="1221" cy="1446.89" r="37" fill="green" stroke="black" />
<circle cx="1295" cy="1446.89" r="37" fill="green" stroke="black" />
<circle cx="1369" cy="1446.89" r="37" fill="green" stroke="black" />
<circle cx="1443" cy="1446.89" r="37" fill="green" stroke="black" />
<circle cx="370" cy="1510.98" r="37" fill="green" stroke="black" />
<circle cx="444" cy="1510.98" r="37" fill="green" stroke="black" />
<circle cx="518" cy="1510.98" r="37" fill="green" stroke="black" />
<circle cx="592" cy="1510.98" r="37" fill="green" stroke="black" />
<circle cx="666" cy="1510.98" r="37" fill="green" stroke="black" />
<circle cx="740" cy="1510.98" r="37" fill="green" stroke="black" />
<circle cx="814" cy="1510.98" r="37" fill="green" stroke="black" />
<circle cx="888" cy="1510.98" r="37" fill="green" stroke="black" />
<circle cx="962" cy="1510.98" r="37" fill="green" stroke="black" />
<circle cx="1036" cy="1510.98" r="37" fill="green" stroke="black" />
<circle cx="1110" cy="1510.98" r="37" fill="green" stroke="black" />
<circle cx="1184" cy="1510.98" r="37" fill="green" stroke="black" />
<circle cx="1258" cy="1510.98" r="37" fill="green" stroke="black" />
<circle cx="1332" cy="1510.98" r="37" fill="green" stroke="black" />
<circle cx="1406" cy="1510.98" r="37" fill="green" stroke="black" />
<circle cx="407" cy="1575.06" r="37" fill="green" stroke="black" />
<circle cx="481" cy="1575.06" r="37" fill="green" stroke="black" />
<circle cx="555" cy="1575.06" r="37" fill="green" stroke="black" />
<circle cx="629" cy="1575.06" r="37" fill="green" stroke="black" />
<circle cx="703" cy="1575.06" r="37" fill="green" stroke="black" />
<circle cx="777" cy="1575.06" r="37" fill="green" stroke="black" />
<circle cx="851" cy="1575.06" r="37" fill="green" stroke="black" />
<circle cx="925" cy="1575.06" r="37" fill="green" stroke="black" />
<circle cx="999" cy="1575.06" r="37" fill="green" stroke="black" />
<circle cx="1073" cy="1575.06" r="37" fill="green" stroke="black" />
<circle cx="1147" cy="1575.06" r="37" fill="green" stroke="black" />
<circle cx="1221" cy="1575.06" r="37" fill="green" stroke="black" />
<circle cx="1295" cy="1575.06" r="37" fill="green" stroke="black" />
<circle cx="518" cy="1639.15" r="37" fill="green" stroke="black" />
<circle cx="592" cy="1639.15" r="37" fill="green" stroke="black" />
<circle cx="666" cy="1639.15" r="37" fill="green" stroke="black" />
<circle cx="740" cy="1639.15" r="37" fill="green" stroke="black" />
<circle cx="814" cy="1639.15" r="37" fill="green" stroke="black" />
<circle cx="888" cy="1639.15" r="37" fill="green" stroke="black" />
<circle cx="962" cy="1639.15" r="37" fill="green" stroke="black" />
<circle cx="1036" cy="1639.15" r="37" fill="green" stroke="black" />
<circle cx="1110" cy="1639.15" r="37" fill="green" stroke="black" />
<circle cx="1184" cy="1639.15" r="37" fill="green" stroke="black" />
<circle cx="777" cy="1703.23" r="37" fill="green" stroke="black" />
<circle cx="851" cy="1703.23" r="37" fill="green" stroke="black" />
<circle cx="925" cy="1703.23" r="37" fill="green" stroke="black" />
<circle cx="999" cy="1703.23" r="37" fill="green" stroke="black" />

</svg>