<svg viewBox="1.1"
baseProfile="full"
xmlns="http://www.w3.org/2000/svg">
<rect  x="0" y="0" width="900" height="800" fill="red" stroke="white" />
<polygon points="37 0 0 64.0859 74 64.0859" fill="green" stroke="white" />
<polygon points="111 0 74 64.0859 148 64.0859" fill="green" stroke="white" />
<polygon points="185 0 148 64.0859 222 64.0859" fill="green" stroke="white" />
<polygon points="259 0 222 64.0859 296 64.0859" fill="green" stroke="white" />
<polygon points="333 0 296 64.0859 370 64.0859" fill="green" stroke="white" />
<polygon points="407 0 370 64.0859 444 64.0859" fill="green" stroke="white" />
<polygon points="481 0 444 64.0859 518 64.0859" fill="green" stroke="white" />
<polygon points="555 0 518 64.0859 592 64.0859" fill="green" stroke="white" />
<polygon points="629 0 592 64.0859 666 64.0859" fill="green" stroke="white" />
<polygon points="703 0 666 64.0859 740 64.0859" fill="green" stroke="white" />
<polygon points="777 0 740 64.0859 814 64.0859" fill="green" stroke="white" />
<polygon points="851 0 814 64.0859 888 64.0859" fill="green" stroke="white" />
<polygon points="37 64.0859 0 128.172 74 128.172" fill="green" stroke="white" />
<polygon points="111 64.0859 74 128.172 148 128.172" fill="green" stroke="white" />
<polygon points="185 64.0859 148 128.172 222 128.172" fill="green" stroke="white" />
<polygon points="259 64.0859 222 128.172 296 128.172" fill="green" stroke="white" />
<polygon points="333 64.0859 296 128.172 370 128.172" fill="green" stroke="white" />
<polygon points="407 64.0859 370 128.172 444 128.172" fill="green" stroke="white" />
<polygon points="481 64.0859 444 128.172 518 128.172" fill="green" stroke="white" />
<polygon points="555 64.0859 518 128.172 592 128.172" fill="green" stroke="white" />
<polygon points="629 64.0859 592 128.172 666 128.172" fill="green" stroke="white" />
<polygon points="703 64.0859 666 128.172 740 128.172" fill="green" stroke="white" />
<polygon points="777 64.0859 740 128.172 814 128.172" fill="green" stroke="white" />
<polygon points="851 64.0859 814 128.172 888 128.172" fill="green" stroke="white" />
<polygon points="37 128.172 0 192.258 74 192.258" fill="green" stroke="white" />
<polygon points="111 128.172 74 192.258 148 192.258" fill="green" stroke="white" />
<polygon points="185 128.172 148 192.258 222 192.258" fill="green" stroke="white" />
<polygon points="259 128.172 222 192.258 296 192.258" fill="green" stroke="white" />
<polygon points="333 128.172 296 192.258 370 192.258" fill="green" stroke="white" />
<polygon points="407 128.172 370 192.258 444 192.258" fill="green" stroke="white" />
<polygon points="481 128.172 444 192.258 518 192.258" fill="green" stroke="white" />
<polygon points="555 128.172 518 192.258 592 192.258" fill="green" stroke="white" />
<polygon points="629 128.172 592 192.258 666 192.258" fill="green" stroke="white" />
<polygon points="703 128.172 666 192.258 740 192.258" fill="green" stroke="white" />
<polygon points="777 128.172 740 192.258 814 192.258" fill="green" stroke="white" />
<polygon points="851 128.172 814 192.258 888 192.258" fill="green" stroke="white" />
<polygon points="37 192.258 0 256.344 74 256.344" fill="green" stroke="white" />
<polygon points="111 192.258 74 256.344 148 256.344" fill="green" stroke="white" />
<polygon points="185 192.258 148 256.344 222 256.344" fill="green" stroke="white" />
<polygon points="259 192.258 222 256.344 296 256.344" fill="green" stroke="white" />
<polygon points="333 192.258 296 256.344 370 256.344" fill="green" stroke="white" />
<polygon points="407 192.258 370 256.344 444 256.344" fill="green" stroke="white" />
<polygon points="481 192.258 444 256.344 518 256.344" fill="green" stroke="white" />
<polygon points="555 192.258 518 256.344 592 256.344" fill="green" stroke="white" />
<polygon points="629 192.258 592 256.344 666 256.344" fill="green" stroke="white" />
<polygon points="703 192.258 666 256.344 740 256.344" fill="green" stroke="white" />
<polygon points="777 192.258 740 256.344 814 256.344" fill="green" stroke="white" />
<polygon points="851 192.258 814 256.344 888 256.344" fill="green" stroke="white" />
<polygon points="37 256.344 0 320.429 74 320.429" fill="green" stroke="white" />
<polygon points="111 256.344 74 320.429 148 320.429" fill="green" stroke="white" />
<polygon points="185 256.344 148 320.429 222 320.429" fill="green" stroke="white" />
<polygon points="259 256.344 222 320.429 296 320.429" fill="green" stroke="white" />
<polygon points="333 256.344 296 320.429 370 320.429" fill="green" stroke="white" />
<polygon points="407 256.344 370 320.429 444 320.429" fill="green" stroke="white" />
<polygon points="481 256.344 444 320.429 518 320.429" fill="green" stroke="white" />
<polygon points="555 256.344 518 320.429 592 320.429" fill="green" stroke="white" />
<polygon points="629 256.344 592 320.429 666 320.429" fill="green" stroke="white" />
<polygon points="703 256.344 666 320.429 740 320.429" fill="green" stroke="white" />
<polygon points="777 256.344 740 320.429 814 320.429" fill="green" stroke="white" />
<polygon points="851 256.344 814 320.429 888 320.429" fill="green" stroke="white" />
<polygon points="37 320.429 0 384.515 74 384.515" fill="green" stroke="white" />
<polygon points="111 320.429 74 384.515 148 384.515" fill="green" stroke="white" />
<polygon points="185 320.429 148 384.515 222 384.515" fill="green" stroke="white" />
<polygon points="259 320.429 222 384.515 296 384.515" fill="green" stroke="white" />
<polygon points="333 320.429 296 384.515 370 384.515" fill="green" stroke="white" />
<polygon points="407 320.429 370 384.515 444 384.515" fill="green" stroke="white" />
<polygon points="481 320.429 444 384.515 518 384.515" fill="green" stroke="white" />
<polygon points="555 320.429 518 384.515 592 384.515" fill="green" stroke="white" />
<polygon points="629 320.429 592 384.515 666 384.515" fill="green" stroke="white" />
<polygon points="703 320.429 666 384.515 740 384.515" fill="green" stroke="white" />
<polygon points="777 320.429 740 384.515 814 384.515" fill="green" stroke="white" />
<polygon points="851 320.429 814 384.515 888 384.515" fill="green" stroke="white" />
<polygon points="37 384.515 0 448.601 74 448.601" fill="green" stroke="white" />
<polygon points="111 384.515 74 448.601 148 448.601" fill="green" stroke="white" />
<polygon points="185 384.515 148 448.601 222 448.601" fill="green" stroke="white" />
<polygon points="259 384.515 222 448.601 296 448.601" fill="green" stroke="white" />
<polygon points="333 384.515 296 448.601 370 448.601" fill="green" stroke="white" />
<polygon points="407 384.515 370 448.601 444 448.601" fill="green" stroke="white" />
<polygon points="481 384.515 444 448.601 518 448.601" fill="green" stroke="white" />
<polygon points="555 384.515 518 448.601 592 448.601" fill="green" stroke="white" />
<polygon points="629 384.515 592 448.601 666 448.601" fill="green" stroke="white" />
<polygon points="703 384.515 666 448.601 740 448.601" fill="green" stroke="white" />
<polygon points="777 384.515 740 448.601 814 448.601" fill="green" stroke="white" />
<polygon points="851 384.515 814 448.601 888 448.601" fill="green" stroke="white" />
<polygon points="37 448.601 0 512.687 74 512.687" fill="green" stroke="white" />
<polygon points="111 448.601 74 512.687 148 512.687" fill="green" stroke="white" />
<polygon points="185 448.601 148 512.687 222 512.687" fill="green" stroke="white" />
<polygon points="259 448.601 222 512.687 296 512.687" fill="green" stroke="white" />
<polygon points="333 448.601 296 512.687 370 512.687" fill="green" stroke="white" />
<polygon points="407 448.601 370 512.687 444 512.687" fill="green" stroke="white" />
<polygon points="481 448.601 444 512.687 518 512.687" fill="green" stroke="white" />
<polygon points="555 448.601 518 512.687 592 512.687" fill="green" stroke="white" />
<polygon points="629 448.601 592 512.687 666 512.687" fill="green" stroke="white" />
<polygon points="703 448.601 666 512.687 740 512.687" fill="green" stroke="white" />
<polygon points="777 448.601 740 512.687 814 512.687" fill="green" stroke="white" />
<polygon points="851 448.601 814 512.687 888 512.687" fill="green" stroke="white" />
<polygon points="37 512.687 0 576.773 74 576.773" fill="green" stroke="white" />
<polygon points="111 512.687 74 576.773 148 576.773" fill="green" stroke="white" />
<polygon points="185 512.687 148 576.773 222 576.773" fill="green" stroke="white" />
<polygon points="259 512.687 222 576.773 296 576.773" fill="green" stroke="white" />
<polygon points="333 512.687 296 576.773 370 576.773" fill="green" stroke="white" />
<polygon points="407 512.687 370 576.773 444 576.773" fill="green" stroke="white" />
<polygon points="481 512.687 444 576.773 518 576.773" fill="green" stroke="white" />
<polygon points="555 512.687 518 576.773 592 576.773" fill="green" stroke="white" />
<polygon points="629 512.687 592 576.773 666 576.773" fill="green" stroke="white" />
<polygon points="703 512.687 666 576.773 740 576.773" fill="green" stroke="white" />
<polygon points="777 512.687 740 576.773 814 576.773" fill="green" stroke="white" />
<polygon points="851 512.687 814 576.773 888 576.773" fill="green" stroke="white" />
<polygon points="37 576.773 0 640.859 74 640.859" fill="green" stroke="white" />
<polygon points="111 576.773 74 640.859 148 640.859" fill="green" stroke="white" />
<polygon points="185 576.773 148 640.859 222 640.859" fill="green" stroke="white" />
<polygon points="259 576.773 222 640.859 296 640.859" fill="green" stroke="white" />
<polygon points="333 576.773 296 640.859 370 640.859" fill="green" stroke="white" />
<polygon points="407 576.773 370 640.859 444 640.859" fill="green" stroke="white" />
<polygon points="481 576.773 444 640.859 518 640.859" fill="green" stroke="white" />
<polygon points="555 576.773 518 640.859 592 640.859" fill="green" stroke="white" />
<polygon points="629 576.773 592 640.859 666 640.859" fill="green" stroke="white" />
<polygon points="703 576.773 666 640.859 740 640.859" fill="green" stroke="white" />
<polygon points="777 576.773 740 640.859 814 640.859" fill="green" stroke="white" />
<polygon points="851 576.773 814 640.859 888 640.859" fill="green" stroke="white" />
<polygon points="37 640.859 0 704.945 74 704.945" fill="green" stroke="white" />
<polygon points="111 640.859 74 704.945 148 704.945" fill="green" stroke="white" />
<polygon points="185 640.859 148 704.945 222 704.945" fill="green" stroke="white" />
<polygon points="259 640.859 222 704.945 296 704.945" fill="green" stroke="white" />
<polygon points="333 640.859 296 704.945 370 704.945" fill="green" stroke="white" />
<polygon points="407 640.859 370 704.945 444 704.945" fill="green" stroke="white" />
<polygon points="481 640.859 444 704.945 518 704.945" fill="green" stroke="white" />
<polygon points="555 640.859 518 704.945 592 704.945" fill="green" stroke="white" />
<polygon points="629 640.859 592 704.945 666 704.945" fill="green" stroke="white" />
<polygon points="703 640.859 666 704.945 740 704.945" fill="green" stroke="white" />
<polygon points="777 640.859 740 704.945 814 704.945" fill="green" stroke="white" />
<polygon points="851 640.859 814 704.945 888 704.945" fill="green" stroke="white" />
<polygon points="37 704.945 0 769.031 74 769.031" fill="green" stroke="white" />
<polygon points="111 704.945 74 769.031 148 769.031" fill="green" stroke="white" />
<polygon points="185 704.945 148 769.031 222 769.031" fill="green" stroke="white" />
<polygon points="259 704.945 222 769.031 296 769.031" fill="green" stroke="white" />
<polygon points="333 704.945 296 769.031 370 769.031" fill="green" stroke="white" />
<polygon points="407 704.945 370 769.031 444 769.031" fill="green" stroke="white" />
<polygon points="481 704.945 444 769.031 518 769.031" fill="green" stroke="white" />
<polygon points="555 704.945 518 769.031 592 769.031" fill="green" stroke="white" />
<polygon points="629 704.945 592 769.031 666 769.031" fill="green" stroke="white" />
<polygon points="703 704.945 666 769.031 740 769.031" fill="green" stroke="white" />
<polygon points="777 704.945 740 769.031 814 769.031" fill="green" stroke="white" />
<polygon points="851 704.945 814 769.031 888 769.031" fill="green" stroke="white" />
<polygon points="37 0 111 0 74 64.0859" fill="green" stroke="white" />
<polygon points="111 0 185 0 148 64.0859" fill="green" stroke="white" />
<polygon points="185 0 259 0 222 64.0859" fill="green" stroke="white" />
<polygon points="259 0 333 0 296 64.0859" fill="green" stroke="white" />
<polygon points="333 0 407 0 370 64.0859" fill="green" stroke="white" />
<polygon points="407 0 481 0 444 64.0859" fill="green" stroke="white" />
<polygon points="481 0 555 0 518 64.0859" fill="green" stroke="white" />
<polygon points="555 0 629 0 592 64.0859" fill="green" stroke="white" />
<polygon points="629 0 703 0 666 64.0859" fill="green" stroke="white" />
<polygon points="703 0 777 0 740 64.0859" fill="green" stroke="white" />
<polygon points="777 0 851 0 814 64.0859" fill="green" stroke="white" />
<polygon points="37 64.0859 111 64.0859 74 128.172" fill="green" stroke="white" />
<polygon points="111 64.0859 185 64.0859 148 128.172" fill="green" stroke="white" />
<polygon points="185 64.0859 259 64.0859 222 128.172" fill="green" stroke="white" />
<polygon points="259 64.0859 333 64.0859 296 128.172" fill="green" stroke="white" />
<polygon points="333 64.0859 407 64.0859 370 128.172" fill="green" stroke="white" />
<polygon points="407 64.0859 481 64.0859 444 128.172" fill="green" stroke="white" />
<polygon points="481 64.0859 555 64.0859 518 128.172" fill="green" stroke="white" />
<polygon points="555 64.0859 629 64.0859 592 128.172" fill="green" stroke="white" />
<polygon points="629 64.0859 703 64.0859 666 128.172" fill="green" stroke="white" />
<polygon points="703 64.0859 777 64.0859 740 128.172" fill="green" stroke="white" />
<polygon points="777 64.0859 851 64.0859 814 128.172" fill="green" stroke="white" />
<polygon points="37 128.172 111 128.172 74 192.258" fill="green" stroke="white" />
<polygon points="111 128.172 185 128.172 148 192.258" fill="green" stroke="white" />
<polygon points="185 128.172 259 128.172 222 192.258" fill="green" stroke="white" />
<polygon points="259 128.172 333 128.172 296 192.258" fill="green" stroke="white" />
<polygon points="333 128.172 407 128.172 370 192.258" fill="green" stroke="white" />
<polygon points="407 128.172 481 128.172 444 192.258" fill="green" stroke="white" />
<polygon points="481 128.172 555 128.172 518 192.258" fill="green" stroke="white" />
<polygon points="555 128.172 629 128.172 592 192.258" fill="green" stroke="white" />
<polygon points="629 128.172 703 128.172 666 192.258" fill="green" stroke="white" />
<polygon points="703 128.172 777 128.172 740 192.258" fill="green" stroke="white" />
<polygon points="777 128.172 851 128.172 814 192.258" fill="green" stroke="white" />
<polygon points="37 192.258 111 192.258 74 256.344" fill="green" stroke="white" />
<polygon points="111 192.258 185 192.258 148 256.344" fill="green" stroke="white" />
<polygon points="185 192.258 259 192.258 222 256.344" fill="green" stroke="white" />
<polygon points="259 192.258 333 192.258 296 256.344" fill="green" stroke="white" />
<polygon points="333 192.258 407 192.258 370 256.344" fill="green" stroke="white" />
<polygon points="407 192.258 481 192.258 444 256.344" fill="green" stroke="white" />
<polygon points="481 192.258 555 192.258 518 256.344" fill="green" stroke="white" />
<polygon points="555 192.258 629 192.258 592 256.344" fill="green" stroke="white" />
<polygon points="629 192.258 703 192.258 666 256.344" fill="green" stroke="white" />
<polygon points="703 192.258 777 192.258 740 256.344" fill="green" stroke="white" />
<polygon points="777 192.258 851 192.258 814 256.344" fill="green" stroke="white" />
<polygon points="37 256.344 111 256.344 74 320.429" fill="green" stroke="white" />
<polygon points="111 256.344 185 256.344 148 320.429" fill="green" stroke="white" />
<polygon points="185 256.344 259 256.344 222 320.429" fill="green" stroke="white" />
<polygon points="259 256.344 333 256.344 296 320.429" fill="green" stroke="white" />
<polygon points="333 256.344 407 256.344 370 320.429" fill="green" stroke="white" />
<polygon points="407 256.344 481 256.344 444 320.429" fill="green" stroke="white" />
<polygon points="481 256.344 555 256.344 518 320.429" fill="green" stroke="white" />
<polygon points="555 256.344 629 256.344 592 320.429" fill="green" stroke="white" />
<polygon points="629 256.344 703 256.344 666 320.429" fill="green" stroke="white" />
<polygon points="703 256.344 777 256.344 740 320.429" fill="green" stroke="white" />
<polygon points="777 256.344 851 256.344 814 320.429" fill="green" stroke="white" />
<polygon points="37 320.429 111 320.429 74 384.515" fill="green" stroke="white" />
<polygon points="111 320.429 185 320.429 148 384.515" fill="green" stroke="white" />
<polygon points="185 320.429 259 320.429 222 384.515" fill="green" stroke="white" />
<polygon points="259 320.429 333 320.429 296 384.515" fill="green" stroke="white" />
<polygon points="333 320.429 407 320.429 370 384.515" fill="green" stroke="white" />
<polygon points="407 320.429 481 320.429 444 384.515" fill="green" stroke="white" />
<polygon points="481 320.429 555 320.429 518 384.515" fill="green" stroke="white" />
<polygon points="555 320.429 629 320.429 592 384.515" fill="green" stroke="white" />
<polygon points="629 320.429 703 320.429 666 384.515" fill="green" stroke="white" />
<polygon points="703 320.429 777 320.429 740 384.515" fill="green" stroke="white" />
<polygon points="777 320.429 851 320.429 814 384.515" fill="green" stroke="white" />
<polygon points="37 384.515 111 384.515 74 448.601" fill="green" stroke="white" />
<polygon points="111 384.515 185 384.515 148 448.601" fill="green" stroke="white" />
<polygon points="185 384.515 259 384.515 222 448.601" fill="green" stroke="white" />
<polygon points="259 384.515 333 384.515 296 448.601" fill="green" stroke="white" />
<polygon points="333 384.515 407 384.515 370 448.601" fill="green" stroke="white" />
<polygon points="407 384.515 481 384.515 444 448.601" fill="green" stroke="white" />
<polygon points="481 384.515 555 384.515 518 448.601" fill="green" stroke="white" />
<polygon points="555 384.515 629 384.515 592 448.601" fill="green" stroke="white" />
<polygon points="629 384.515 703 384.515 666 448.601" fill="green" stroke="white" />
<polygon points="703 384.515 777 384.515 740 448.601" fill="green" stroke="white" />
<polygon points="777 384.515 851 384.515 814 448.601" fill="green" stroke="white" />
<polygon points="37 448.601 111 448.601 74 512.687" fill="green" stroke="white" />
<polygon points="111 448.601 185 448.601 148 512.687" fill="green" stroke="white" />
<polygon points="185 448.601 259 448.601 222 512.687" fill="green" stroke="white" />
<polygon points="259 448.601 333 448.601 296 512.687" fill="green" stroke="white" />
<polygon points="333 448.601 407 448.601 370 512.687" fill="green" stroke="white" />
<polygon points="407 448.601 481 448.601 444 512.687" fill="green" stroke="white" />
<polygon points="481 448.601 555 448.601 518 512.687" fill="green" stroke="white" />
<polygon points="555 448.601 629 448.601 592 512.687" fill="green" stroke="white" />
<polygon points="629 448.601 703 448.601 666 512.687" fill="green" stroke="white" />
<polygon points="703 448.601 777 448.601 740 512.687" fill="green" stroke="white" />
<polygon points="777 448.601 851 448.601 814 512.687" fill="green" stroke="white" />
<polygon points="37 512.687 111 512.687 74 576.773" fill="green" stroke="white" />
<polygon points="111 512.687 185 512.687 148 576.773" fill="green" stroke="white" />
<polygon points="185 512.687 259 512.687 222 576.773" fill="green" stroke="white" />
<polygon points="259 512.687 333 512.687 296 576.773" fill="green" stroke="white" />
<polygon points="333 512.687 407 512.687 370 576.773" fill="green" stroke="white" />
<polygon points="407 512.687 481 512.687 444 576.773" fill="green" stroke="white" />
<polygon points="481 512.687 555 512.687 518 576.773" fill="green" stroke="white" />
<polygon points="555 512.687 629 512.687 592 576.773" fill="green" stroke="white" />
<polygon points="629 512.687 703 512.687 666 576.773" fill="green" stroke="white" />
<polygon points="703 512.687 777 512.687 740 576.773" fill="green" stroke="white" />
<polygon points="777 512.687 851 512.687 814 576.773" fill="green" stroke="white" />
<polygon points="37 576.773 111 576.773 74 640.859" fill="green" stroke="white" />
<polygon points="111 576.773 185 576.773 148 640.859" fill="green" stroke="white" />
<polygon points="185 576.773 259 576.773 222 640.859" fill="green" stroke="white" />
<polygon points="259 576.773 333 576.773 296 640.859" fill="green" stroke="white" />
<polygon points="333 576.773 407 576.773 370 640.859" fill="green" stroke="white" />
<polygon points="407 576.773 481 576.773 444 640.859" fill="green" stroke="white" />
<polygon points="481 576.773 555 576.773 518 640.859" fill="green" stroke="white" />
<polygon points="555 576.773 629 576.773 592 640.859" fill="green" stroke="white" />
<polygon points="629 576.773 703 576.773 666 640.859" fill="green" stroke="white" />
<polygon points="703 576.773 777 576.773 740 640.859" fill="green" stroke="white" />
<polygon points="777 576.773 851 576.773 814 640.859" fill="green" stroke="white" />
<polygon points="37 640.859 111 640.859 74 704.945" fill="green" stroke="white" />
<polygon points="111 640.859 185 640.859 148 704.945" fill="green" stroke="white" />
<polygon points="185 640.859 259 640.859 222 704.945" fill="green" stroke="white" />
<polygon points="259 640.859 333 640.859 296 704.945" fill="green" stroke="white" />
<polygon points="333 640.859 407 640.859 370 704.945" fill="green" stroke="white" />
<polygon points="407 640.859 481 640.859 444 704.945" fill="green" stroke="white" />
<polygon points="481 640.859 555 640.859 518 704.945" fill="green" stroke="white" />
<polygon points="555 640.859 629 640.859 592 704.945" fill="green" stroke="white" />
<polygon points="629 640.859 703 640.859 666 704.945" fill="green" stroke="white" />
<polygon points="703 640.859 777 640.859 740 704.945" fill="green" stroke="white" />
<polygon points="777 640.859 851 640.859 814 704.945" fill="green" stroke="white" />
<polygon points="37 704.945 111 704.945 74 769.031" fill="green" stroke="white" />
<polygon points="111 704.945 185 704.945 148 769.031" fill="green" stroke="white" />
<polygon points="185 704.945 259 704.945 222 769.031" fill="green" stroke="white" />
<polygon points="259 704.945 333 704.945 296 769.031" fill="green" stroke="white" />
<polygon points="333 704.945 407 704.945 370 769.031" fill="green" stroke="white" />
<polygon points="407 704.945 481 704.945 444 769.031" fill="green" stroke="white" />
<polygon points="481 704.945 555 704.945 518 769.031" fill="green" stroke="white" />
<polygon points="555 704.945 629 704.945 592 769.031" fill="green" stroke="white" />
<polygon points="629 704.945 703 704.945 666 769.031" fill="green" stroke="white" />
<polygon points="703 704.945 777 704.945 740 769.031" fill="green" stroke="white" />
<polygon points="777 704.945 851 704.945 814 769.031" fill="green" stroke="white" />

</svg>