<svg viewBox="1.1"
baseProfile="full"
xmlns="http://www.w3.org/2000/svg">
<rect  x="0" y="0" width="900" height="800" fill="red" stroke="white" />
<rect  x="0" y="0" width="57" height="118" fill="green" stroke="white" />
<rect  x="57" y="0" width="57" height="118" fill="green" stroke="white" />
<rect  x="114" y="0" width="57" height="118" fill="green" stroke="white" />
<rect  x="171" y="0" width="57" height="118" fill="green" stroke="white" />
<rect  x="228" y="0" width="57" height="118" fill="green" stroke="white" />
<rect  x="285" y="0" width="57" height="118" fill="green" stroke="white" />
<rect  x="342" y="0" width="57" height="118" fill="green" stroke="white" />
<rect  x="399" y="0" width="57" height="118" fill="green" stroke="white" />
<rect  x="456" y="0" width="57" height="118" fill="green" stroke="white" />
<rect  x="513" y="0" width="57" height="118" fill="green" stroke="white" />
<rect  x="570" y="0" width="57" height="118" fill="green" stroke="white" />
<rect  x="627" y="0" width="57" height="118" fill="green" stroke="white" />
<rect  x="684" y="0" width="57" height="118" fill="green" stroke="white" />
<rect  x="741" y="0" width="57" height="118" fill="green" stroke="white" />
<rect  x="798" y="0" width="57" height="118" fill="green" stroke="white" />
<rect  x="0" y="118" width="57" height="118" fill="green" stroke="white" />
<rect  x="57" y="118" width="57" height="118" fill="green" stroke="white" />
<rect  x="114" y="118" width="57" height="118" fill="green" stroke="white" />
<rect  x="171" y="118" width="57" height="118" fill="green" stroke="white" />
<rect  x="228" y="118" width="57" height="118" fill="green" stroke="white" />
<rect  x="285" y="118" width="57" height="118" fill="green" stroke="white" />
<rect  x="342" y="118" width="57" height="118" fill="green" stroke="white" />
<rect  x="399" y="118" width="57" height="118" fill="green" stroke="white" />
<rect  x="456" y="118" width="57" height="118" fill="green" stroke="white" />
<rect  x="513" y="118" width="57" height="118" fill="green" stroke="white" />
<rect  x="570" y="118" width="57" height="118" fill="green" stroke="white" />
<rect  x="627" y="118" width="57" height="118" fill="green" stroke="white" />
<rect  x="684" y="118" width="57" height="118" fill="green" stroke="white" />
<rect  x="741" y="118" width="57" height="118" fill="green" stroke="white" />
<rect  x="798" y="118" width="57" height="118" fill="green" stroke="white" />
<rect  x="0" y="236" width="57" height="118" fill="green" stroke="white" />
<rect  x="57" y="236" width="57" height="118" fill="green" stroke="white" />
<rect  x="114" y="236" width="57" height="118" fill="green" stroke="white" />
<rect  x="171" y="236" width="57" height="118" fill="green" stroke="white" />
<rect  x="228" y="236" width="57" height="118" fill="green" stroke="white" />
<rect  x="285" y="236" width="57" height="118" fill="green" stroke="white" />
<rect  x="342" y="236" width="57" height="118" fill="green" stroke="white" />
<rect  x="399" y="236" width="57" height="118" fill="green" stroke="white" />
<rect  x="456" y="236" width="57" height="118" fill="green" stroke="white" />
<rect  x="513" y="236" width="57" height="118" fill="green" stroke="white" />
<rect  x="570" y="236" width="57" height="118" fill="green" stroke="white" />
<rect  x="627" y="236" width="57" height="118" fill="green" stroke="white" />
<rect  x="684" y="236" width="57" height="118" fill="green" stroke="white" />
<rect  x="741" y="236" width="57" height="118" fill="green" stroke="white" />
<rect  x="798" y="236" width="57" height="118" fill="green" stroke="white" />
<rect  x="0" y="354" width="57" height="118" fill="green" stroke="white" />
<rect  x="57" y="354" width="57" height="118" fill="green" stroke="white" />
<rect  x="114" y="354" width="57" height="118" fill="green" stroke="white" />
<rect  x="171" y="354" width="57" height="118" fill="green" stroke="white" />
<rect  x="228" y="354" width="57" height="118" fill="green" stroke="white" />
<rect  x="285" y="354" width="57" height="118" fill="green" stroke="white" />
<rect  x="342" y="354" width="57" height="118" fill="green" stroke="white" />
<rect  x="399" y="354" width="57" height="118" fill="green" stroke="white" />
<rect  x="456" y="354" width="57" height="118" fill="green" stroke="white" />
<rect  x="513" y="354" width="57" height="118" fill="green" stroke="white" />
<rect  x="570" y="354" width="57" height="118" fill="green" stroke="white" />
<rect  x="627" y="354" width="57" height="118" fill="green" stroke="white" />
<rect  x="684" y="354" width="57" height="118" fill="green" stroke="white" />
<rect  x="741" y="354" width="57" height="118" fill="green" stroke="white" />
<rect  x="798" y="354" width="57" height="118" fill="green" stroke="white" />
<rect  x="0" y="472" width="57" height="118" fill="green" stroke="white" />
<rect  x="57" y="472" width="57" height="118" fill="green" stroke="white" />
<rect  x="114" y="472" width="57" height="118" fill="green" stroke="white" />
<rect  x="171" y="472" width="57" height="118" fill="green" stroke="white" />
<rect  x="228" y="472" width="57" height="118" fill="green" stroke="white" />
<rect  x="285" y="472" width="57" height="118" fill="green" stroke="white" />
<rect  x="342" y="472" width="57" height="118" fill="green" stroke="white" />
<rect  x="399" y="472" width="57" height="118" fill="green" stroke="white" />
<rect  x="456" y="472" width="57" height="118" fill="green" stroke="white" />
<rect  x="513" y="472" width="57" height="118" fill="green" stroke="white" />
<rect  x="570" y="472" width="57" height="118" fill="green" stroke="white" />
<rect  x="627" y="472" width="57" height="118" fill="green" stroke="white" />
<rect  x="684" y="472" width="57" height="118" fill="green" stroke="white" />
<rect  x="741" y="472" width="57" height="118" fill="green" stroke="white" />
<rect  x="798" y="472" width="57" height="118" fill="green" stroke="white" />
<rect  x="0" y="590" width="57" height="118" fill="green" stroke="white" />
<rect  x="57" y="590" width="57" height="118" fill="green" stroke="white" />
<rect  x="114" y="590" width="57" height="118" fill="green" stroke="white" />
<rect  x="171" y="590" width="57" height="118" fill="green" stroke="white" />
<rect  x="228" y="590" width="57" height="118" fill="green" stroke="white" />
<rect  x="285" y="590" width="57" height="118" fill="green" stroke="white" />
<rect  x="342" y="590" width="57" height="118" fill="green" stroke="white" />
<rect  x="399" y="590" width="57" height="118" fill="green" stroke="white" />
<rect  x="456" y="590" width="57" height="118" fill="green" stroke="white" />
<rect  x="513" y="590" width="57" height="118" fill="green" stroke="white" />
<rect  x="570" y="590" width="57" height="118" fill="green" stroke="white" />
<rect  x="627" y="590" width="57" height="118" fill="green" stroke="white" />
<rect  x="684" y="590" width="57" height="118" fill="green" stroke="white" />
<rect  x="741" y="590" width="57" height="118" fill="green" stroke="white" />
<rect  x="798" y="590" width="57" height="118" fill="green" stroke="white" />
<rect  x="0" y="708" width="118" height="57" fill="green" stroke="white" />
<rect  x="118" y="708" width="118" height="57" fill="green" stroke="white" />
<rect  x="236" y="708" width="118" height="57" fill="green" stroke="white" />
<rect  x="354" y="708" width="118" height="57" fill="green" stroke="white" />
<rect  x="472" y="708" width="118" height="57" fill="green" stroke="white" />
<rect  x="590" y="708" width="118" height="57" fill="green" stroke="white" />
<rect  x="708" y="708" width="118" height="57" fill="green" stroke="white" />

</svg>