<svg viewBox="1.1"
baseProfile="full"
xmlns="http://www.w3.org/2000/svg">
<rect  x="0" y="0" width="900" height="800" fill="red" stroke="white" />
<circle cx="20" cy="20" r="20" fill="green" stroke="black" />
<circle cx="60" cy="20" r="20" fill="green" stroke="black" />
<circle cx="100" cy="20" r="20" fill="green" stroke="black" />
<circle cx="140" cy="20" r="20" fill="green" stroke="black" />
<circle cx="180" cy="20" r="20" fill="green" stroke="black" />
<circle cx="220" cy="20" r="20" fill="green" stroke="black" />
<circle cx="260" cy="20" r="20" fill="green" stroke="black" />
<circle cx="300" cy="20" r="20" fill="green" stroke="black" />
<circle cx="340" cy="20" r="20" fill="green" stroke="black" />
<circle cx="380" cy="20" r="20" fill="green" stroke="black" />
<circle cx="420" cy="20" r="20" fill="green" stroke="black" />
<circle cx="460" cy="20" r="20" fill="green" stroke="black" />
<circle cx="500" cy="20" r="20" fill="green" stroke="black" />
<circle cx="540" cy="20" r="20" fill="green" stroke="black" />
<circle cx="580" cy="20" r="20" fill="green" stroke="black" />
<circle cx="620" cy="20" r="20" fill="green" stroke="black" />
<circle cx="660" cy="20" r="20" fill="green" stroke="black" />
<circle cx="700" cy="20" r="20" fill="green" stroke="black" />
<circle cx="740" cy="20" r="20" fill="green" stroke="black" />
<circle cx="780" cy="20" r="20" fill="green" stroke="black" />
<circle cx="820" cy="20" r="20" fill="green" stroke="black" />
<circle cx="860" cy="20" r="20" fill="green" stroke="black" />
<circle cx="40" cy="54.641" r="20" fill="green" stroke="black" />
<circle cx="80" cy="54.641" r="20" fill="green" stroke="black" />
<circle cx="120" cy="54.641" r="20" fill="green" stroke="black" />
<circle cx="160" cy="54.641" r="20" fill="green" stroke="black" />
<circle cx="200" cy="54.641" r="20" fill="green" stroke="black" />
<circle cx="240" cy="54.641" r="20" fill="green" stroke="black" />
<circle cx="280" cy="54.641" r="20" fill="green" stroke="black" />
<circle cx="320" cy="54.641" r="20" fill="green" stroke="black" />
<circle cx="360" cy="54.641" r="20" fill="green" stroke="black" />
<circle cx="400" cy="54.641" r="20" fill="green" stroke="black" />
<circle cx="440" cy="54.641" r="20" fill="green" stroke="black" />
<circle cx="480" cy="54.641" r="20" fill="green" stroke="black" />
<circle cx="520" cy="54.641" r="20" fill="green" stroke="black" />
<circle cx="560" cy="54.641" r="20" fill="green" stroke="black" />
<circle cx="600" cy="54.641" r="20" fill="green" stroke="black" />
<circle cx="640" cy="54.641" r="20" fill="green" stroke="black" />
<circle cx="680" cy="54.641" r="20" fill="green" stroke="black" />
<circle cx="720" cy="54.641" r="20" fill="green" stroke="black" />
<circle cx="760" cy="54.641" r="20" fill="green" stroke="black" />
<circle cx="800" cy="54.641" r="20" fill="green" stroke="black" />
<circle cx="840" cy="54.641" r="20" fill="green" stroke="black" />
<circle cx="880" cy="54.641" r="20" fill="green" stroke="black" />
<circle cx="20" cy="89.282" r="20" fill="green" stroke="black" />
<circle cx="60" cy="89.282" r="20" fill="green" stroke="black" />
<circle cx="100" cy="89.282" r="20" fill="green" stroke="black" />
<circle cx="140" cy="89.282" r="20" fill="green" stroke="black" />
<circle cx="180" cy="89.282" r="20" fill="green" stroke="black" />
<circle cx="220" cy="89.282" r="20" fill="green" stroke="black" />
<circle cx="260" cy="89.282" r="20" fill="green" stroke="black" />
<circle cx="300" cy="89.282" r="20" fill="green" stroke="black" />
<circle cx="340" cy="89.282" r="20" fill="green" stroke="black" />
<circle cx="380" cy="89.282" r="20" fill="green" stroke="black" />
<circle cx="420" cy="89.282" r="20" fill="green" stroke="black" />
<circle cx="460" cy="89.282" r="20" fill="green" stroke="black" />
<circle cx="500" cy="89.282" r="20" fill="green" stroke="black" />
<circle cx="540" cy="89.282" r="20" fill="green" stroke="black" />
<circle cx="580" cy="89.282" r="20" fill="green" stroke="black" />
<circle cx="620" cy="89.282" r="20" fill="green" stroke="black" />
<circle cx="660" cy="89.282" r="20" fill="green" stroke="black" />
<circle cx="700" cy="89.282" r="20" fill="green" stroke="black" />
<circle cx="740" cy="89.282" r="20" fill="green" stroke="black" />
<circle cx="780" cy="89.282" r="20" fill="green" stroke="black" />
<circle cx="820" cy="89.282" r="20" fill="green" stroke="black" />
<circle cx="860" cy="89.282" r="20" fill="green" stroke="black" />
<circle cx="40" cy="123.923" r="20" fill="green" stroke="black" />
<circle cx="80" cy="123.923" r="20" fill="green" stroke="black" />
<circle cx="120" cy="123.923" r="20" fill="green" stroke="black" />
<circle cx="160" cy="123.923" r="20" fill="green" stroke="black" />
<circle cx="200" cy="123.923" r="20" fill="green" stroke="black" />
<circle cx="240" cy="123.923" r="20" fill="green" stroke="black" />
<circle cx="280" cy="123.923" r="20" fill="green" stroke="black" />
<circle cx="320" cy="123.923" r="20" fill="green" stroke="black" />
<circle cx="360" cy="123.923" r="20" fill="green" stroke="black" />
<circle cx="400" cy="123.923" r="20" fill="green" stroke="black" />
<circle cx="440" cy="123.923" r="20" fill="green" stroke="black" />
<circle cx="480" cy="123.923" r="20" fill="green" stroke="black" />
<circle cx="520" cy="123.923" r="20" fill="green" stroke="black" />
<circle cx="560" cy="123.923" r="20" fill="green" stroke="black" />
<circle cx="600" cy="123.923" r="20" fill="green" stroke="black" />
<circle cx="640" cy="123.923" r="20" fill="green" stroke="black" />
<circle cx="680" cy="123.923" r="20" fill="green" stroke="black" />
<circle cx="720" cy="123.923" r="20" fill="green" stroke="black" />
<circle cx="760" cy="123.923" r="20" fill="green" stroke="black" />
<circle cx="800" cy="123.923" r="20" fill="green" stroke="black" />
<circle cx="840" cy="123.923" r="20" fill="green" stroke="black" />
<circle cx="880" cy="123.923" r="20" fill="green" stroke="black" />
<circle cx="20" cy="158.564" r="20" fill="green" stroke="black" />
<circle cx="60" cy="158.564" r="20" fill="green" stroke="black" />
<circle cx="100" cy="158.564" r="20" fill="green" stroke="black" />
<circle cx="140" cy="158.564" r="20" fill="green" stroke="black" />
<circle cx="180" cy="158.564" r="20" fill="green" stroke="black" />
<circle cx="220" cy="158.564" r="20" fill="green" stroke="black" />
<circle cx="260" cy="158.564" r="20" fill="green" stroke="black" />
<circle cx="300" cy="158.564" r="20" fill="green" stroke="black" />
<circle cx="340" cy="158.564" r="20" fill="green" stroke="black" />
<circle cx="380" cy="158.564" r="20" fill="green" stroke="black" />
<circle cx="420" cy="158.564" r="20" fill="green" stroke="black" />
<circle cx="460" cy="158.564" r="20" fill="green" stroke="black" />
<circle cx="500" cy="158.564" r="20" fill="green" stroke="black" />
<circle cx="540" cy="158.564" r="20" fill="green" stroke="black" />
<circle cx="580" cy="158.564" r="20" fill="green" stroke="black" />
<circle cx="620" cy="158.564" r="20" fill="green" stroke="black" />
<circle cx="660" cy="158.564" r="20" fill="green" stroke="black" />
<circle cx="700" cy="158.564" r="20" fill="green" stroke="black" />
<circle cx="740" cy="158.564" r="20" fill="green" stroke="black" />
<circle cx="780" cy="158.564" r="20" fill="green" stroke="black" />
<circle cx="820" cy="158.564" r="20" fill="green" stroke="black" />
<circle cx="860" cy="158.564" r="20" fill="green" stroke="black" />
<circle cx="40" cy="193.205" r="20" fill="green" stroke="black" />
<circle cx="80" cy="193.205" r="20" fill="green" stroke="black" />
<circle cx="120" cy="193.205" r="20" fill="green" stroke="black" />
<circle cx="160" cy="193.205" r="20" fill="green" stroke="black" />
<circle cx="200" cy="193.205" r="20" fill="green" stroke="black" />
<circle cx="240" cy="193.205" r="20" fill="green" stroke="black" />
<circle cx="280" cy="193.205" r="20" fill="green" stroke="black" />
<circle cx="320" cy="193.205" r="20" fill="green" stroke="black" />
<circle cx="360" cy="193.205" r="20" fill="green" stroke="black" />
<circle cx="400" cy="193.205" r="20" fill="green" stroke="black" />
<circle cx="440" cy="193.205" r="20" fill="green" stroke="black" />
<circle cx="480" cy="193.205" r="20" fill="green" stroke="black" />
<circle cx="520" cy="193.205" r="20" fill="green" stroke="black" />
<circle cx="560" cy="193.205" r="20" fill="green" stroke="black" />
<circle cx="600" cy="193.205" r="20" fill="green" stroke="black" />
<circle cx="640" cy="193.205" r="20" fill="green" stroke="black" />
<circle cx="680" cy="193.205" r="20" fill="green" stroke="black" />
<circle cx="720" cy="193.205" r="20" fill="green" stroke="black" />
<circle cx="760" cy="193.205" r="20" fill="green" stroke="black" />
<circle cx="800" cy="193.205" r="20" fill="green" stroke="black" />
<circle cx="840" cy="193.205" r="20" fill="green" stroke="black" />
<circle cx="880" cy="193.205" r="20" fill="green" stroke="black" />
<circle cx="20" cy="227.846" r="20" fill="green" stroke="black" />
<circle cx="60" cy="227.846" r="20" fill="green" stroke="black" />
<circle cx="100" cy="227.846" r="20" fill="green" stroke="black" />
<circle cx="140" cy="227.846" r="20" fill="green" stroke="black" />
<circle cx="180" cy="227.846" r="20" fill="green" stroke="black" />
<circle cx="220" cy="227.846" r="20" fill="green" stroke="black" />
<circle cx="260" cy="227.846" r="20" fill="green" stroke="black" />
<circle cx="300" cy="227.846" r="20" fill="green" stroke="black" />
<circle cx="340" cy="227.846" r="20" fill="green" stroke="black" />
<circle cx="380" cy="227.846" r="20" fill="green" stroke="black" />
<circle cx="420" cy="227.846" r="20" fill="green" stroke="black" />
<circle cx="460" cy="227.846" r="20" fill="green" stroke="black" />
<circle cx="500" cy="227.846" r="20" fill="green" stroke="black" />
<circle cx="540" cy="227.846" r="20" fill="green" stroke="black" />
<circle cx="580" cy="227.846" r="20" fill="green" stroke="black" />
<circle cx="620" cy="227.846" r="20" fill="green" stroke="black" />
<circle cx="660" cy="227.846" r="20" fill="green" stroke="black" />
<circle cx="700" cy="227.846" r="20" fill="green" stroke="black" />
<circle cx="740" cy="227.846" r="20" fill="green" stroke="black" />
<circle cx="780" cy="227.846" r="20" fill="green" stroke="black" />
<circle cx="820" cy="227.846" r="20" fill="green" stroke="black" />
<circle cx="860" cy="227.846" r="20" fill="green" stroke="black" />
<circle cx="40" cy="262.487" r="20" fill="green" stroke="black" />
<circle cx="80" cy="262.487" r="20" fill="green" stroke="black" />
<circle cx="120" cy="262.487" r="20" fill="green" stroke="black" />
<circle cx="160" cy="262.487" r="20" fill="green" stroke="black" />
<circle cx="200" cy="262.487" r="20" fill="green" stroke="black" />
<circle cx="240" cy="262.487" r="20" fill="green" stroke="black" />
<circle cx="280" cy="262.487" r="20" fill="green" stroke="black" />
<circle cx="320" cy="262.487" r="20" fill="green" stroke="black" />
<circle cx="360" cy="262.487" r="20" fill="green" stroke="black" />
<circle cx="400" cy="262.487" r="20" fill="green" stroke="black" />
<circle cx="440" cy="262.487" r="20" fill="green" stroke="black" />
<circle cx="480" cy="262.487" r="20" fill="green" stroke="black" />
<circle cx="520" cy="262.487" r="20" fill="green" stroke="black" />
<circle cx="560" cy="262.487" r="20" fill="green" stroke="black" />
<circle cx="600" cy="262.487" r="20" fill="green" stroke="black" />
<circle cx="640" cy="262.487" r="20" fill="green" stroke="black" />
<circle cx="680" cy="262.487" r="20" fill="green" stroke="black" />
<circle cx="720" cy="262.487" r="20" fill="green" stroke="black" />
<circle cx="760" cy="262.487" r="20" fill="green" stroke="black" />
<circle cx="800" cy="262.487" r="20" fill="green" stroke="black" />
<circle cx="840" cy="262.487" r="20" fill="green" stroke="black" />
<circle cx="880" cy="262.487" r="20" fill="green" stroke="black" />
<circle cx="20" cy="297.128" r="20" fill="green" stroke="black" />
<circle cx="60" cy="297.128" r="20" fill="green" stroke="black" />
<circle cx="100" cy="297.128" r="20" fill="green" stroke="black" />
<circle cx="140" cy="297.128" r="20" fill="green" stroke="black" />
<circle cx="180" cy="297.128" r="20" fill="green" stroke="black" />
<circle cx="220" cy="297.128" r="20" fill="green" stroke="black" />
<circle cx="260" cy="297.128" r="20" fill="green" stroke="black" />
<circle cx="300" cy="297.128" r="20" fill="green" stroke="black" />
<circle cx="340" cy="297.128" r="20" fill="green" stroke="black" />
<circle cx="380" cy="297.128" r="20" fill="green" stroke="black" />
<circle cx="420" cy="297.128" r="20" fill="green" stroke="black" />
<circle cx="460" cy="297.128" r="20" fill="green" stroke="black" />
<circle cx="500" cy="297.128" r="20" fill="green" stroke="black" />
<circle cx="540" cy="297.128" r="20" fill="green" stroke="black" />
<circle cx="580" cy="297.128" r="20" fill="green" stroke="black" />
<circle cx="620" cy="297.128" r="20" fill="green" stroke="black" />
<circle cx="660" cy="297.128" r="20" fill="green" stroke="black" />
<circle cx="700" cy="297.128" r="20" fill="green" stroke="black" />
<circle cx="740" cy="297.128" r="20" fill="green" stroke="black" />
<circle cx="780" cy="297.128" r="20" fill="green" stroke="black" />
<circle cx="820" cy="297.128" r="20" fill="green" stroke="black" />
<circle cx="860" cy="297.128" r="20" fill="green" stroke="black" />
<circle cx="40" cy="331.769" r="20" fill="green" stroke="black" />
<circle cx="80" cy="331.769" r="20" fill="green" stroke="black" />
<circle cx="120" cy="331.769" r="20" fill="green" stroke="black" />
<circle cx="160" cy="331.769" r="20" fill="green" stroke="black" />
<circle cx="200" cy="331.769" r="20" fill="green" stroke="black" />
<circle cx="240" cy="331.769" r="20" fill="green" stroke="black" />
<circle cx="280" cy="331.769" r="20" fill="green" stroke="black" />
<circle cx="320" cy="331.769" r="20" fill="green" stroke="black" />
<circle cx="360" cy="331.769" r="20" fill="green" stroke="black" />
<circle cx="400" cy="331.769" r="20" fill="green" stroke="black" />
<circle cx="440" cy="331.769" r="20" fill="green" stroke="black" />
<circle cx="480" cy="331.769" r="20" fill="green" stroke="black" />
<circle cx="520" cy="331.769" r="20" fill="green" stroke="black" />
<circle cx="560" cy="331.769" r="20" fill="green" stroke="black" />
<circle cx="600" cy="331.769" r="20" fill="green" stroke="black" />
<circle cx="640" cy="331.769" r="20" fill="green" stroke="black" />
<circle cx="680" cy="331.769" r="20" fill="green" stroke="black" />
<circle cx="720" cy="331.769" r="20" fill="green" stroke="black" />
<circle cx="760" cy="331.769" r="20" fill="green" stroke="black" />
<circle cx="800" cy="331.769" r="20" fill="green" stroke="black" />
<circle cx="840" cy="331.769" r="20" fill="green" stroke="black" />
<circle cx="880" cy="331.769" r="20" fill="green" stroke="black" />
<circle cx="20" cy="366.41" r="20" fill="green" stroke="black" />
<circle cx="60" cy="366.41" r="20" fill="green" stroke="black" />
<circle cx="100" cy="366.41" r="20" fill="green" stroke="black" />
<circle cx="140" cy="366.41" r="20" fill="green" stroke="black" />
<circle cx="180" cy="366.41" r="20" fill="green" stroke="black" />
<circle cx="220" cy="366.41" r="20" fill="green" stroke="black" />
<circle cx="260" cy="366.41" r="20" fill="green" stroke="black" />
<circle cx="300" cy="366.41" r="20" fill="green" stroke="black" />
<circle cx="340" cy="366.41" r="20" fill="green" stroke="black" />
<circle cx="380" cy="366.41" r="20" fill="green" stroke="black" />
<circle cx="420" cy="366.41" r="20" fill="green" stroke="black" />
<circle cx="460" cy="366.41" r="20" fill="green" stroke="black" />
<circle cx="500" cy="366.41" r="20" fill="green" stroke="black" />
<circle cx="540" cy="366.41" r="20" fill="green" stroke="black" />
<circle cx="580" cy="366.41" r="20" fill="green" stroke="black" />
<circle cx="620" cy="366.41" r="20" fill="green" stroke="black" />
<circle cx="660" cy="366.41" r="20" fill="green" stroke="black" />
<circle cx="700" cy="366.41" r="20" fill="green" stroke="black" />
<circle cx="740" cy="366.41" r="20" fill="green" stroke="black" />
<circle cx="780" cy="366.41" r="20" fill="green" stroke="black" />
<circle cx="820" cy="366.41" r="20" fill="green" stroke="black" />
<circle cx="860" cy="366.41" r="20" fill="green" stroke="black" />
<circle cx="40" cy="401.051" r="20" fill="green" stroke="black" />
<circle cx="80" cy="401.051" r="20" fill="green" stroke="black" />
<circle cx="120" cy="401.051" r="20" fill="green" stroke="black" />
<circle cx="160" cy="401.051" r="20" fill="green" stroke="black" />
<circle cx="200" cy="401.051" r="20" fill="green" stroke="black" />
<circle cx="240" cy="401.051" r="20" fill="green" stroke="black" />
<circle cx="280" cy="401.051" r="20" fill="green" stroke="black" />
<circle cx="320" cy="401.051" r="20" fill="green" stroke="black" />
<circle cx="360" cy="401.051" r="20" fill="green" stroke="black" />
<circle cx="400" cy="401.051" r="20" fill="green" stroke="black" />
<circle cx="440" cy="401.051" r="20" fill="green" stroke="black" />
<circle cx="480" cy="401.051" r="20" fill="green" stroke="black" />
<circle cx="520" cy="401.051" r="20" fill="green" stroke="black" />
<circle cx="560" cy="401.051" r="20" fill="green" stroke="black" />
<circle cx="600" cy="401.051" r="20" fill="green" stroke="black" />
<circle cx="640" cy="401.051" r="20" fill="green" stroke="black" />
<circle cx="680" cy="401.051" r="20" fill="green" stroke="black" />
<circle cx="720" cy="401.051" r="20" fill="green" stroke="black" />
<circle cx="760" cy="401.051" r="20" fill="green" stroke="black" />
<circle cx="800" cy="401.051" r="20" fill="green" stroke="black" />
<circle cx="840" cy="401.051" r="20" fill="green" stroke="black" />
<circle cx="880" cy="401.051" r="20" fill="green" stroke="black" />
<circle cx="20" cy="435.692" r="20" fill="green" stroke="black" />
<circle cx="60" cy="435.692" r="20" fill="green" stroke="black" />
<circle cx="100" cy="435.692" r="20" fill="green" stroke="black" />
<circle cx="140" cy="435.692" r="20" fill="green" stroke="black" />
<circle cx="180" cy="435.692" r="20" fill="green" stroke="black" />
<circle cx="220" cy="435.692" r="20" fill="green" stroke="black" />
<circle cx="260" cy="435.692" r="20" fill="green" stroke="black" />
<circle cx="300" cy="435.692" r="20" fill="green" stroke="black" />
<circle cx="340" cy="435.692" r="20" fill="green" stroke="black" />
<circle cx="380" cy="435.692" r="20" fill="green" stroke="black" />
<circle cx="420" cy="435.692" r="20" fill="green" stroke="black" />
<circle cx="460" cy="435.692" r="20" fill="green" stroke="black" />
<circle cx="500" cy="435.692" r="20" fill="green" stroke="black" />
<circle cx="540" cy="435.692" r="20" fill="green" stroke="black" />
<circle cx="580" cy="435.692" r="20" fill="green" stroke="black" />
<circle cx="620" cy="435.692" r="20" fill="green" stroke="black" />
<circle cx="660" cy="435.692" r="20" fill="green" stroke="black" />
<circle cx="700" cy="435.692" r="20" fill="green" stroke="black" />
<circle cx="740" cy="435.692" r="20" fill="green" stroke="black" />
<circle cx="780" cy="435.692" r="20" fill="green" stroke="black" />
<circle cx="820" cy="435.692" r="20" fill="green" stroke="black" />
<circle cx="860" cy="435.692" r="20" fill="green" stroke="black" />
<circle cx="40" cy="470.333" r="20" fill="green" stroke="black" />
<circle cx="80" cy="470.333" r="20" fill="green" stroke="black" />
<circle cx="120" cy="470.333" r="20" fill="green" stroke="black" />
<circle cx="160" cy="470.333" r="20" fill="green" stroke="black" />
<circle cx="200" cy="470.333" r="20" fill="green" stroke="black" />
<circle cx="240" cy="470.333" r="20" fill="green" stroke="black" />
<circle cx="280" cy="470.333" r="20" fill="green" stroke="black" />
<circle cx="320" cy="470.333" r="20" fill="green" stroke="black" />
<circle cx="360" cy="470.333" r="20" fill="green" stroke="black" />
<circle cx="400" cy="470.333" r="20" fill="green" stroke="black" />
<circle cx="440" cy="470.333" r="20" fill="green" stroke="black" />
<circle cx="480" cy="470.333" r="20" fill="green" stroke="black" />
<circle cx="520" cy="470.333" r="20" fill="green" stroke="black" />
<circle cx="560" cy="470.333" r="20" fill="green" stroke="black" />
<circle cx="600" cy="470.333" r="20" fill="green" stroke="black" />
<circle cx="640" cy="470.333" r="20" fill="green" stroke="black" />
<circle cx="680" cy="470.333" r="20" fill="green" stroke="black" />
<circle cx="720" cy="470.333" r="20" fill="green" stroke="black" />
<circle cx="760" cy="470.333" r="20" fill="green" stroke="black" />
<circle cx="800" cy="470.333" r="20" fill="green" stroke="black" />
<circle cx="840" cy="470.333" r="20" fill="green" stroke="black" />
<circle cx="880" cy="470.333" r="20" fill="green" stroke="black" />
<circle cx="20" cy="504.974" r="20" fill="green" stroke="black" />
<circle cx="60" cy="504.974" r="20" fill="green" stroke="black" />
<circle cx="100" cy="504.974" r="20" fill="green" stroke="black" />
<circle cx="140" cy="504.974" r="20" fill="green" stroke="black" />
<circle cx="180" cy="504.974" r="20" fill="green" stroke="black" />
<circle cx="220" cy="504.974" r="20" fill="green" stroke="black" />
<circle cx="260" cy="504.974" r="20" fill="green" stroke="black" />
<circle cx="300" cy="504.974" r="20" fill="green" stroke="black" />
<circle cx="340" cy="504.974" r="20" fill="green" stroke="black" />
<circle cx="380" cy="504.974" r="20" fill="green" stroke="black" />
<circle cx="420" cy="504.974" r="20" fill="green" stroke="black" />
<circle cx="460" cy="504.974" r="20" fill="green" stroke="black" />
<circle cx="500" cy="504.974" r="20" fill="green" stroke="black" />
<circle cx="540" cy="504.974" r="20" fill="green" stroke="black" />
<circle cx="580" cy="504.974" r="20" fill="green" stroke="black" />
<circle cx="620" cy="504.974" r="20" fill="green" stroke="black" />
<circle cx="660" cy="504.974" r="20" fill="green" stroke="black" />
<circle cx="700" cy="504.974" r="20" fill="green" stroke="black" />
<circle cx="740" cy="504.974" r="20" fill="green" stroke="black" />
<circle cx="780" cy="504.974" r="20" fill="green" stroke="black" />
<circle cx="820" cy="504.974" r="20" fill="green" stroke="black" />
<circle cx="860" cy="504.974" r="20" fill="green" stroke="black" />
<circle cx="40" cy="539.615" r="20" fill="green" stroke="black" />
<circle cx="80" cy="539.615" r="20" fill="green" stroke="black" />
<circle cx="120" cy="539.615" r="20" fill="green" stroke="black" />
<circle cx="160" cy="539.615" r="20" fill="green" stroke="black" />
<circle cx="200" cy="539.615" r="20" fill="green" stroke="black" />
<circle cx="240" cy="539.615" r="20" fill="green" stroke="black" />
<circle cx="280" cy="539.615" r="20" fill="green" stroke="black" />
<circle cx="320" cy="539.615" r="20" fill="green" stroke="black" />
<circle cx="360" cy="539.615" r="20" fill="green" stroke="black" />
<circle cx="400" cy="539.615" r="20" fill="green" stroke="black" />
<circle cx="440" cy="539.615" r="20" fill="green" stroke="black" />
<circle cx="480" cy="539.615" r="20" fill="green" stroke="black" />
<circle cx="520" cy="539.615" r="20" fill="green" stroke="black" />
<circle cx="560" cy="539.615" r="20" fill="green" stroke="black" />
<circle cx="600" cy="539.615" r="20" fill="green" stroke="black" />
<circle cx="640" cy="539.615" r="20" fill="green" stroke="black" />
<circle cx="680" cy="539.615" r="20" fill="green" stroke="black" />
<circle cx="720" cy="539.615" r="20" fill="green" stroke="black" />
<circle cx="760" cy="539.615" r="20" fill="green" stroke="black" />
<circle cx="800" cy="539.615" r="20" fill="green" stroke="black" />
<circle cx="840" cy="539.615" r="20" fill="green" stroke="black" />
<circle cx="880" cy="539.615" r="20" fill="green" stroke="black" />
<circle cx="20" cy="574.256" r="20" fill="green" stroke="black" />
<circle cx="60" cy="574.256" r="20" fill="green" stroke="black" />
<circle cx="100" cy="574.256" r="20" fill="green" stroke="black" />
<circle cx="140" cy="574.256" r="20" fill="green" stroke="black" />
<circle cx="180" cy="574.256" r="20" fill="green" stroke="black" />
<circle cx="220" cy="574.256" r="20" fill="green" stroke="black" />
<circle cx="260" cy="574.256" r="20" fill="green" stroke="black" />
<circle cx="300" cy="574.256" r="20" fill="green" stroke="black" />
<circle cx="340" cy="574.256" r="20" fill="green" stroke="black" />
<circle cx="380" cy="574.256" r="20" fill="green" stroke="black" />
<circle cx="420" cy="574.256" r="20" fill="green" stroke="black" />
<circle cx="460" cy="574.256" r="20" fill="green" stroke="black" />
<circle cx="500" cy="574.256" r="20" fill="green" stroke="black" />
<circle cx="540" cy="574.256" r="20" fill="green" stroke="black" />
<circle cx="580" cy="574.256" r="20" fill="green" stroke="black" />
<circle cx="620" cy="574.256" r="20" fill="green" stroke="black" />
<circle cx="660" cy="574.256" r="20" fill="green" stroke="black" />
<circle cx="700" cy="574.256" r="20" fill="green" stroke="black" />
<circle cx="740" cy="574.256" r="20" fill="green" stroke="black" />
<circle cx="780" cy="574.256" r="20" fill="green" stroke="black" />
<circle cx="820" cy="574.256" r="20" fill="green" stroke="black" />
<circle cx="860" cy="574.256" r="20" fill="green" stroke="black" />
<circle cx="40" cy="608.897" r="20" fill="green" stroke="black" />
<circle cx="80" cy="608.897" r="20" fill="green" stroke="black" />
<circle cx="120" cy="608.897" r="20" fill="green" stroke="black" />
<circle cx="160" cy="608.897" r="20" fill="green" stroke="black" />
<circle cx="200" cy="608.897" r="20" fill="green" stroke="black" />
<circle cx="240" cy="608.897" r="20" fill="green" stroke="black" />
<circle cx="280" cy="608.897" r="20" fill="green" stroke="black" />
<circle cx="320" cy="608.897" r="20" fill="green" stroke="black" />
<circle cx="360" cy="608.897" r="20" fill="green" stroke="black" />
<circle cx="400" cy="608.897" r="20" fill="green" stroke="black" />
<circle cx="440" cy="608.897" r="20" fill="green" stroke="black" />
<circle cx="480" cy="608.897" r="20" fill="green" stroke="black" />
<circle cx="520" cy="608.897" r="20" fill="green" stroke="black" />
<circle cx="560" cy="608.897" r="20" fill="green" stroke="black" />
<circle cx="600" cy="608.897" r="20" fill="green" stroke="black" />
<circle cx="640" cy="608.897" r="20" fill="green" stroke="black" />
<circle cx="680" cy="608.897" r="20" fill="green" stroke="black" />
<circle cx="720" cy="608.897" r="20" fill="green" stroke="black" />
<circle cx="760" cy="608.897" r="20" fill="green" stroke="black" />
<circle cx="800" cy="608.897" r="20" fill="green" stroke="black" />
<circle cx="840" cy="608.897" r="20" fill="green" stroke="black" />
<circle cx="880" cy="608.897" r="20" fill="green" stroke="black" />
<circle cx="20" cy="643.538" r="20" fill="green" stroke="black" />
<circle cx="60" cy="643.538" r="20" fill="green" stroke="black" />
<circle cx="100" cy="643.538" r="20" fill="green" stroke="black" />
<circle cx="140" cy="643.538" r="20" fill="green" stroke="black" />
<circle cx="180" cy="643.538" r="20" fill="green" stroke="black" />
<circle cx="220" cy="643.538" r="20" fill="green" stroke="black" />
<circle cx="260" cy="643.538" r="20" fill="green" stroke="black" />
<circle cx="300" cy="643.538" r="20" fill="green" stroke="black" />
<circle cx="340" cy="643.538" r="20" fill="green" stroke="black" />
<circle cx="380" cy="643.538" r="20" fill="green" stroke="black" />
<circle cx="420" cy="643.538" r="20" fill="green" stroke="black" />
<circle cx="460" cy="643.538" r="20" fill="green" stroke="black" />
<circle cx="500" cy="643.538" r="20" fill="green" stroke="black" />
<circle cx="540" cy="643.538" r="20" fill="green" stroke="black" />
<circle cx="580" cy="643.538" r="20" fill="green" stroke="black" />
<circle cx="620" cy="643.538" r="20" fill="green" stroke="black" />
<circle cx="660" cy="643.538" r="20" fill="green" stroke="black" />
<circle cx="700" cy="643.538" r="20" fill="green" stroke="black" />
<circle cx="740" cy="643.538" r="20" fill="green" stroke="black" />
<circle cx="780" cy="643.538" r="20" fill="green" stroke="black" />
<circle cx="820" cy="643.538" r="20" fill="green" stroke="black" />
<circle cx="860" cy="643.538" r="20" fill="green" stroke="black" />
<circle cx="40" cy="678.179" r="20" fill="green" stroke="black" />
<circle cx="80" cy="678.179" r="20" fill="green" stroke="black" />
<circle cx="120" cy="678.179" r="20" fill="green" stroke="black" />
<circle cx="160" cy="678.179" r="20" fill="green" stroke="black" />
<circle cx="200" cy="678.179" r="20" fill="green" stroke="black" />
<circle cx="240" cy="678.179" r="20" fill="green" stroke="black" />
<circle cx="280" cy="678.179" r="20" fill="green" stroke="black" />
<circle cx="320" cy="678.179" r="20" fill="green" stroke="black" />
<circle cx="360" cy="678.179" r="20" fill="green" stroke="black" />
<circle cx="400" cy="678.179" r="20" fill="green" stroke="black" />
<circle cx="440" cy="678.179" r="20" fill="green" stroke="black" />
<circle cx="480" cy="678.179" r="20" fill="green" stroke="black" />
<circle cx="520" cy="678.179" r="20" fill="green" stroke="black" />
<circle cx="560" cy="678.179" r="20" fill="green" stroke="black" />
<circle cx="600" cy="678.179" r="20" fill="green" stroke="black" />
<circle cx="640" cy="678.179" r="20" fill="green" stroke="black" />
<circle cx="680" cy="678.179" r="20" fill="green" stroke="black" />
<circle cx="720" cy="678.179" r="20" fill="green" stroke="black" />
<circle cx="760" cy="678.179" r="20" fill="green" stroke="black" />
<circle cx="800" cy="678.179" r="20" fill="green" stroke="black" />
<circle cx="840" cy="678.179" r="20" fill="green" stroke="black" />
<circle cx="880" cy="678.179" r="20" fill="green" stroke="black" />
<circle cx="20" cy="712.82" r="20" fill="green" stroke="black" />
<circle cx="60" cy="712.82" r="20" fill="green" stroke="black" />
<circle cx="100" cy="712.82" r="20" fill="green" stroke="black" />
<circle cx="140" cy="712.82" r="20" fill="green" stroke="black" />
<circle cx="180" cy="712.82" r="20" fill="green" stroke="black" />
<circle cx="220" cy="712.82" r="20" fill="green" stroke="black" />
<circle cx="260" cy="712.82" r="20" fill="green" stroke="black" />
<circle cx="300" cy="712.82" r="20" fill="green" stroke="black" />
<circle cx="340" cy="712.82" r="20" fill="green" stroke="black" />
<circle cx="380" cy="712.82" r="20" fill="green" stroke="black" />
<circle cx="420" cy="712.82" r="20" fill="green" stroke="black" />
<circle cx="460" cy="712.82" r="20" fill="green" stroke="black" />
<circle cx="500" cy="712.82" r="20" fill="green" stroke="black" />
<circle cx="540" cy="712.82" r="20" fill="green" stroke="black" />
<circle cx="580" cy="712.82" r="20" fill="green" stroke="black" />
<circle cx="620" cy="712.82" r="20" fill="green" stroke="black" />
<circle cx="660" cy="712.82" r="20" fill="green" stroke="black" />
<circle cx="700" cy="712.82" r="20" fill="green" stroke="black" />
<circle cx="740" cy="712.82" r="20" fill="green" stroke="black" />
<circle cx="780" cy="712.82" r="20" fill="green" stroke="black" />
<circle cx="820" cy="712.82" r="20" fill="green" stroke="black" />
<circle cx="860" cy="712.82" r="20" fill="green" stroke="black" />
<circle cx="40" cy="747.461" r="20" fill="green" stroke="black" />
<circle cx="80" cy="747.461" r="20" fill="green" stroke="black" />
<circle cx="120" cy="747.461" r="20" fill="green" stroke="black" />
<circle cx="160" cy="747.461" r="20" fill="green" stroke="black" />
<circle cx="200" cy="747.461" r="20" fill="green" stroke="black" />
<circle cx="240" cy="747.461" r="20" fill="green" stroke="black" />
<circle cx="280" cy="747.461" r="20" fill="green" stroke="black" />
<circle cx="320" cy="747.461" r="20" fill="green" stroke="black" />
<circle cx="360" cy="747.461" r="20" fill="green" stroke="black" />
<circle cx="400" cy="747.461" r="20" fill="green" stroke="black" />
<circle cx="440" cy="747.461" r="20" fill="green" stroke="black" />
<circle cx="480" cy="747.461" r="20" fill="green" stroke="black" />
<circle cx="520" cy="747.461" r="20" fill="green" stroke="black" />
<circle cx="560" cy="747.461" r="20" fill="green" stroke="black" />
<circle cx="600" cy="747.461" r="20" fill="green" stroke="black" />
<circle cx="640" cy="747.461" r="20" fill="green" stroke="black" />
<circle cx="680" cy="747.461" r="20" fill="green" stroke="black" />
<circle cx="720" cy="747.461" r="20" fill="green" stroke="black" />
<circle cx="760" cy="747.461" r="20" fill="green" stroke="black" />
<circle cx="800" cy="747.461" r="20" fill="green" stroke="black" />
<circle cx="840" cy="747.461" r="20" fill="green" stroke="black" />
<circle cx="880" cy="747.461" r="20" fill="green" stroke="black" />

</svg>