<svg viewBox="1.1"
baseProfile="full"
xmlns="http://www.w3.org/2000/svg">
<polygon points="450 0 0 779.423 900 779.423" fill="red" stroke="white" />
<polygon points="450 0 402.5 82.2724 497.5 82.2724" fill="green" stroke="white" />
<polygon points="402.5 82.2724 355 164.545 450 164.545" fill="green" stroke="white" />
<polygon points="497.5 82.2724 450 164.545 545 164.545" fill="green" stroke="white" />
<polygon points="355 164.545 307.5 246.817 402.5 246.817" fill="green" stroke="white" />
<polygon points="450 164.545 402.5 246.817 497.5 246.817" fill="green" stroke="white" />
<polygon points="545 164.545 497.5 246.817 592.5 246.817" fill="green" stroke="white" />
<polygon points="307.5 246.817 260 329.09 355 329.09" fill="green" stroke="white" />
<polygon points="402.5 246.817 355 329.09 450 329.09" fill="green" stroke="white" />
<polygon points="497.5 246.817 450 329.09 545 329.09" fill="green" stroke="white" />
<polygon points="592.5 246.817 545 329.09 640 329.09" fill="green" stroke="white" />
<polygon points="260 329.09 212.5 411.362 307.5 411.362" fill="green" stroke="white" />
<polygon points="355 329.09 307.5 411.362 402.5 411.362" fill="green" stroke="white" />
<polygon points="450 329.09 402.5 411.362 497.5 411.362" fill="green" stroke="white" />
<polygon points="545 329.09 497.5 411.362 592.5 411.362" fill="green" stroke="white" />
<polygon points="640 329.09 592.5 411.362 687.5 411.362" fill="green" stroke="white" />
<polygon points="212.5 411.362 165 493.634 260 493.634" fill="green" stroke="white" />
<polygon points="307.5 411.362 260 493.634 355 493.634" fill="green" stroke="white" />
<polygon points="402.5 411.362 355 493.634 450 493.634" fill="green" stroke="white" />
<polygon points="497.5 411.362 450 493.634 545 493.634" fill="green" stroke="white" />
<polygon points="592.5 411.362 545 493.634 640 493.634" fill="green" stroke="white" />
<polygon points="687.5 411.362 640 493.634 735 493.634" fill="green" stroke="white" />
<polygon points="165 493.634 117.5 575.907 212.5 575.907" fill="green" stroke="white" />
<polygon points="260 493.634 212.5 575.907 307.5 575.907" fill="green" stroke="white" />
<polygon points="355 493.634 307.5 575.907 402.5 575.907" fill="green" stroke="white" />
<polygon points="450 493.634 402.5 575.907 497.5 575.907" fill="green" stroke="white" />
<polygon points="545 493.634 497.5 575.907 592.5 575.907" fill="green" stroke="white" />
<polygon points="640 493.634 592.5 575.907 687.5 575.907" fill="green" stroke="white" />
<polygon points="735 493.634 687.5 575.907 782.5 575.907" fill="green" stroke="white" />
<polygon points="117.5 575.907 70 658.179 165 658.179" fill="green" stroke="white" />
<polygon points="212.5 575.907 165 658.179 260 658.179" fill="green" stroke="white" />
<polygon points="307.5 575.907 260 658.179 355 658.179" fill="green" stroke="white" />
<polygon points="402.5 575.907 355 658.179 450 658.179" fill="green" stroke="white" />
<polygon points="497.5 575.907 450 658.179 545 658.179" fill="green" stroke="white" />
<polygon points="592.5 575.907 545 658.179 640 658.179" fill="green" stroke="white" />
<polygon points="687.5 575.907 640 658.179 735 658.179" fill="green" stroke="white" />
<polygon points="782.5 575.907 735 658.179 830 658.179" fill="green" stroke="white" />
<polygon points="70 658.179 22.5 740.452 117.5 740.452" fill="green" stroke="white" />
<polygon points="165 658.179 117.5 740.452 212.5 740.452" fill="green" stroke="white" />
<polygon points="260 658.179 212.5 740.452 307.5 740.452" fill="green" stroke="white" />
<polygon points="355 658.179 307.5 740.452 402.5 740.452" fill="green" stroke="white" />
<polygon points="450 658.179 402.5 740.452 497.5 740.452" fill="green" stroke="white" />
<polygon points="545 658.179 497.5 740.452 592.5 740.452" fill="green" stroke="white" />
<polygon points="640 658.179 592.5 740.452 687.5 740.452" fill="green" stroke="white" />
<polygon points="735 658.179 687.5 740.452 782.5 740.452" fill="green" stroke="white" />
<polygon points="830 658.179 782.5 740.452 877.5 740.452" fill="green" stroke="white" />
<polygon points="402.5 82.2724 497.5 82.2724 450 164.545" fill="green" stroke="white" />
<polygon points="355 164.545 450 164.545 402.5 246.817" fill="green" stroke="white" />
<polygon points="450 164.545 545 164.545 497.5 246.817" fill="green" stroke="white" />
<polygon points="307.5 246.817 402.5 246.817 355 329.09" fill="green" stroke="white" />
<polygon points="402.5 246.817 497.5 246.817 450 329.09" fill="green" stroke="white" />
<polygon points="497.5 246.817 592.5 246.817 545 329.09" fill="green" stroke="white" />
<polygon points="260 329.09 355 329.09 307.5 411.362" fill="green" stroke="white" />
<polygon points="355 329.09 450 329.09 402.5 411.362" fill="green" stroke="white" />
<polygon points="450 329.09 545 329.09 497.5 411.362" fill="green" stroke="white" />
<polygon points="545 329.09 640 329.09 592.5 411.362" fill="green" stroke="white" />
<polygon points="212.5 411.362 307.5 411.362 260 493.634" fill="green" stroke="white" />
<polygon points="307.5 411.362 402.5 411.362 355 493.634" fill="green" stroke="white" />
<polygon points="402.5 411.362 497.5 411.362 450 493.634" fill="green" stroke="white" />
<polygon points="497.5 411.362 592.5 411.362 545 493.634" fill="green" stroke="white" />
<polygon points="592.5 411.362 687.5 411.362 640 493.634" fill="green" stroke="white" />
<polygon points="165 493.634 260 493.634 212.5 575.907" fill="green" stroke="white" />
<polygon points="260 493.634 355 493.634 307.5 575.907" fill="green" stroke="white" />
<polygon points="355 493.634 450 493.634 402.5 575.907" fill="green" stroke="white" />
<polygon points="450 493.634 545 493.634 497.5 575.907" fill="green" stroke="white" />
<polygon points="545 493.634 640 493.634 592.5 575.907" fill="green" stroke="white" />
<polygon points="640 493.634 735 493.634 687.5 575.907" fill="green" stroke="white" />
<polygon points="117.5 575.907 212.5 575.907 165 658.179" fill="green" stroke="white" />
<polygon points="212.5 575.907 307.5 575.907 260 658.179" fill="green" stroke="white" />
<polygon points="307.5 575.907 402.5 575.907 355 658.179" fill="green" stroke="white" />
<polygon points="402.5 575.907 497.5 575.907 450 658.179" fill="green" stroke="white" />
<polygon points="497.5 575.907 592.5 575.907 545 658.179" fill="green" stroke="white" />
<polygon points="592.5 575.907 687.5 575.907 640 658.179" fill="green" stroke="white" />
<polygon points="687.5 575.907 782.5 575.907 735 658.179" fill="green" stroke="white" />
<polygon points="70 658.179 165 658.179 117.5 740.452" fill="green" stroke="white" />
<polygon points="165 658.179 260 658.179 212.5 740.452" fill="green" stroke="white" />
<polygon points="260 658.179 355 658.179 307.5 740.452" fill="green" stroke="white" />
<polygon points="355 658.179 450 658.179 402.5 740.452" fill="green" stroke="white" />
<polygon points="450 658.179 545 658.179 497.5 740.452" fill="green" stroke="white" />
<polygon points="545 658.179 640 658.179 592.5 740.452" fill="green" stroke="white" />
<polygon points="640 658.179 735 658.179 687.5 740.452" fill="green" stroke="white" />
<polygon points="735 658.179 830 658.179 782.5 740.452" fill="green" stroke="white" />

</svg>