<svg viewBox="1.1"
baseProfile="full"
xmlns="http://www.w3.org/2000/svg">
<polygon points="450 0 0 779.423 900 779.423" fill="red" stroke="white" />
<rect  x="43.3013" y="704.423" width="90" height="75" fill="green" stroke="white" />
<rect  x="133.301" y="704.423" width="90" height="75" fill="green" stroke="white" />
<rect  x="223.301" y="704.423" width="90" height="75" fill="green" stroke="white" />
<rect  x="313.301" y="704.423" width="90" height="75" fill="green" stroke="white" />
<rect  x="403.301" y="704.423" width="90" height="75" fill="green" stroke="white" />
<rect  x="493.301" y="704.423" width="90" height="75" fill="green" stroke="white" />
<rect  x="583.301" y="704.423" width="90" height="75" fill="green" stroke="white" />
<rect  x="673.301" y="704.423" width="90" height="75" fill="green" stroke="white" />
<rect  x="763.301" y="704.423" width="90" height="75" fill="green" stroke="white" />
<rect  x="86.6025" y="629.423" width="90" height="75" fill="green" stroke="white" />
<rect  x="176.603" y="629.423" width="90" height="75" fill="green" stroke="white" />
<rect  x="266.603" y="629.423" width="90" height="75" fill="green" stroke="white" />
<rect  x="356.603" y="629.423" width="90" height="75" fill="green" stroke="white" />
<rect  x="446.603" y="629.423" width="90" height="75" fill="green" stroke="white" />
<rect  x="536.603" y="629.423" width="90" height="75" fill="green" stroke="white" />
<rect  x="626.603" y="629.423" width="90" height="75" fill="green" stroke="white" />
<rect  x="716.603" y="629.423" width="90" height="75" fill="green" stroke="white" />
<rect  x="129.904" y="554.423" width="90" height="75" fill="green" stroke="white" />
<rect  x="219.904" y="554.423" width="90" height="75" fill="green" stroke="white" />
<rect  x="309.904" y="554.423" width="90" height="75" fill="green" stroke="white" />
<rect  x="399.904" y="554.423" width="90" height="75" fill="green" stroke="white" />
<rect  x="489.904" y="554.423" width="90" height="75" fill="green" stroke="white" />
<rect  x="579.904" y="554.423" width="90" height="75" fill="green" stroke="white" />
<rect  x="669.904" y="554.423" width="90" height="75" fill="green" stroke="white" />
<rect  x="173.205" y="479.423" width="90" height="75" fill="green" stroke="white" />
<rect  x="263.205" y="479.423" width="90" height="75" fill="green" stroke="white" />
<rect  x="353.205" y="479.423" width="90" height="75" fill="green" stroke="white" />
<rect  x="443.205" y="479.423" width="90" height="75" fill="green" stroke="white" />
<rect  x="533.205" y="479.423" width="90" height="75" fill="green" stroke="white" />
<rect  x="623.205" y="479.423" width="90" height="75" fill="green" stroke="white" />
<rect  x="216.506" y="404.423" width="90" height="75" fill="green" stroke="white" />
<rect  x="306.506" y="404.423" width="90" height="75" fill="green" stroke="white" />
<rect  x="396.506" y="404.423" width="90" height="75" fill="green" stroke="white" />
<rect  x="486.506" y="404.423" width="90" height="75" fill="green" stroke="white" />
<rect  x="576.506" y="404.423" width="90" height="75" fill="green" stroke="white" />
<rect  x="259.808" y="329.423" width="90" height="75" fill="green" stroke="white" />
<rect  x="349.808" y="329.423" width="90" height="75" fill="green" stroke="white" />
<rect  x="439.808" y="329.423" width="90" height="75" fill="green" stroke="white" />
<rect  x="529.808" y="329.423" width="90" height="75" fill="green" stroke="white" />
<rect  x="303.109" y="254.423" width="90" height="75" fill="green" stroke="white" />
<rect  x="393.109" y="254.423" width="90" height="75" fill="green" stroke="white" />
<rect  x="483.109" y="254.423" width="90" height="75" fill="green" stroke="white" />
<rect  x="346.41" y="179.423" width="90" height="75" fill="green" stroke="white" />
<rect  x="436.41" y="179.423" width="90" height="75" fill="green" stroke="white" />
<rect  x="389.711" y="104.423" width="90" height="75" fill="green" stroke="white" />

</svg>