<svg viewBox="1.1"
baseProfile="full"
xmlns="http://www.w3.org/2000/svg">
<polygon points="450 0 0 779.423 900 779.423" fill="red" stroke="white" />
<circle cx="450" cy="56" r="28" fill="green" stroke="black" />
<circle cx="422" cy="104.497" r="28" fill="green" stroke="black" />
<circle cx="478" cy="104.497" r="28" fill="green" stroke="black" />
<circle cx="394" cy="152.995" r="28" fill="green" stroke="black" />
<circle cx="450" cy="152.995" r="28" fill="green" stroke="black" />
<circle cx="506" cy="152.995" r="28" fill="green" stroke="black" />
<circle cx="366" cy="201.492" r="28" fill="green" stroke="black" />
<circle cx="422" cy="201.492" r="28" fill="green" stroke="black" />
<circle cx="478" cy="201.492" r="28" fill="green" stroke="black" />
<circle cx="534" cy="201.492" r="28" fill="green" stroke="black" />
<circle cx="338" cy="249.99" r="28" fill="green" stroke="black" />
<circle cx="394" cy="249.99" r="28" fill="green" stroke="black" />
<circle cx="450" cy="249.99" r="28" fill="green" stroke="black" />
<circle cx="506" cy="249.99" r="28" fill="green" stroke="black" />
<circle cx="562" cy="249.99" r="28" fill="green" stroke="black" />
<circle cx="310" cy="298.487" r="28" fill="green" stroke="black" />
<circle cx="366" cy="298.487" r="28" fill="green" stroke="black" />
<circle cx="422" cy="298.487" r="28" fill="green" stroke="black" />
<circle cx="478" cy="298.487" r="28" fill="green" stroke="black" />
<circle cx="534" cy="298.487" r="28" fill="green" stroke="black" />
<circle cx="590" cy="298.487" r="28" fill="green" stroke="black" />
<circle cx="282" cy="346.985" r="28" fill="green" stroke="black" />
<circle cx="338" cy="346.985" r="28" fill="green" stroke="black" />
<circle cx="394" cy="346.985" r="28" fill="green" stroke="black" />
<circle cx="450" cy="346.985" r="28" fill="green" stroke="black" />
<circle cx="506" cy="346.985" r="28" fill="green" stroke="black" />
<circle cx="562" cy="346.985" r="28" fill="green" stroke="black" />
<circle cx="618" cy="346.985" r="28" fill="green" stroke="black" />
<circle cx="254" cy="395.482" r="28" fill="green" stroke="black" />
<circle cx="310" cy="395.482" r="28" fill="green" stroke="black" />
<circle cx="366" cy="395.482" r="28" fill="green" stroke="black" />
<circle cx="422" cy="395.482" r="28" fill="green" stroke="black" />
<circle cx="478" cy="395.482" r="28" fill="green" stroke="black" />
<circle cx="534" cy="395.482" r="28" fill="green" stroke="black" />
<circle cx="590" cy="395.482" r="28" fill="green" stroke="black" />
<circle cx="646" cy="395.482" r="28" fill="green" stroke="black" />
<circle cx="226" cy="443.979" r="28" fill="green" stroke="black" />
<circle cx="282" cy="443.979" r="28" fill="green" stroke="black" />
<circle cx="338" cy="443.979" r="28" fill="green" stroke="black" />
<circle cx="394" cy="443.979" r="28" fill="green" stroke="black" />
<circle cx="450" cy="443.979" r="28" fill="green" stroke="black" />
<circle cx="506" cy="443.979" r="28" fill="green" stroke="black" />
<circle cx="562" cy="443.979" r="28" fill="green" stroke="black" />
<circle cx="618" cy="443.979" r="28" fill="green" stroke="black" />
<circle cx="674" cy="443.979" r="28" fill="green" stroke="black" />
<circle cx="198" cy="492.477" r="28" fill="green" stroke="black" />
<circle cx="254" cy="492.477" r="28" fill="green" stroke="black" />
<circle cx="310" cy="492.477" r="28" fill="green" stroke="black" />
<circle cx="366" cy="492.477" r="28" fill="green" stroke="black" />
<circle cx="422" cy="492.477" r="28" fill="green" stroke="black" />
<circle cx="478" cy="492.477" r="28" fill="green" stroke="black" />
<circle cx="534" cy="492.477" r="28" fill="green" stroke="black" />
<circle cx="590" cy="492.477" r="28" fill="green" stroke="black" />
<circle cx="646" cy="492.477" r="28" fill="green" stroke="black" />
<circle cx="702" cy="492.477" r="28" fill="green" stroke="black" />
<circle cx="170" cy="540.974" r="28" fill="green" stroke="black" />
<circle cx="226" cy="540.974" r="28" fill="green" stroke="black" />
<circle cx="282" cy="540.974" r="28" fill="green" stroke="black" />
<circle cx="338" cy="540.974" r="28" fill="green" stroke="black" />
<circle cx="394" cy="540.974" r="28" fill="green" stroke="black" />
<circle cx="450" cy="540.974" r="28" fill="green" stroke="black" />
<circle cx="506" cy="540.974" r="28" fill="green" stroke="black" />
<circle cx="562" cy="540.974" r="28" fill="green" stroke="black" />
<circle cx="618" cy="540.974" r="28" fill="green" stroke="black" />
<circle cx="674" cy="540.974" r="28" fill="green" stroke="black" />
<circle cx="730" cy="540.974" r="28" fill="green" stroke="black" />
<circle cx="142" cy="589.472" r="28" fill="green" stroke="black" />
<circle cx="198" cy="589.472" r="28" fill="green" stroke="black" />
<circle cx="254" cy="589.472" r="28" fill="green" stroke="black" />
<circle cx="310" cy="589.472" r="28" fill="green" stroke="black" />
<circle cx="366" cy="589.472" r="28" fill="green" stroke="black" />
<circle cx="422" cy="589.472" r="28" fill="green" stroke="black" />
<circle cx="478" cy="589.472" r="28" fill="green" stroke="black" />
<circle cx="534" cy="589.472" r="28" fill="green" stroke="black" />
<circle cx="590" cy="589.472" r="28" fill="green" stroke="black" />
<circle cx="646" cy="589.472" r="28" fill="green" stroke="black" />
<circle cx="702" cy="589.472" r="28" fill="green" stroke="black" />
<circle cx="758" cy="589.472" r="28" fill="green" stroke="black" />
<circle cx="114" cy="637.969" r="28" fill="green" stroke="black" />
<circle cx="170" cy="637.969" r="28" fill="green" stroke="black" />
<circle cx="226" cy="637.969" r="28" fill="green" stroke="black" />
<circle cx="282" cy="637.969" r="28" fill="green" stroke="black" />
<circle cx="338" cy="637.969" r="28" fill="green" stroke="black" />
<circle cx="394" cy="637.969" r="28" fill="green" stroke="black" />
<circle cx="450" cy="637.969" r="28" fill="green" stroke="black" />
<circle cx="506" cy="637.969" r="28" fill="green" stroke="black" />
<circle cx="562" cy="637.969" r="28" fill="green" stroke="black" />
<circle cx="618" cy="637.969" r="28" fill="green" stroke="black" />
<circle cx="674" cy="637.969" r="28" fill="green" stroke="black" />
<circle cx="730" cy="637.969" r="28" fill="green" stroke="black" />
<circle cx="786" cy="637.969" r="28" fill="green" stroke="black" />
<circle cx="86" cy="686.466" r="28" fill="green" stroke="black" />
<circle cx="142" cy="686.466" r="28" fill="green" stroke="black" />
<circle cx="198" cy="686.466" r="28" fill="green" stroke="black" />
<circle cx="254" cy="686.466" r="28" fill="green" stroke="black" />
<circle cx="310" cy="686.466" r="28" fill="green" stroke="black" />
<circle cx="366" cy="686.466" r="28" fill="green" stroke="black" />
<circle cx="422" cy="686.466" r="28" fill="green" stroke="black" />
<circle cx="478" cy="686.466" r="28" fill="green" stroke="black" />
<circle cx="534" cy="686.466" r="28" fill="green" stroke="black" />
<circle cx="590" cy="686.466" r="28" fill="green" stroke="black" />
<circle cx="646" cy="686.466" r="28" fill="green" stroke="black" />
<circle cx="702" cy="686.466" r="28" fill="green" stroke="black" />
<circle cx="758" cy="686.466" r="28" fill="green" stroke="black" />
<circle cx="814" cy="686.466" r="28" fill="green" stroke="black" />
<circle cx="58" cy="734.964" r="28" fill="green" stroke="black" />
<circle cx="114" cy="734.964" r="28" fill="green" stroke="black" />
<circle cx="170" cy="734.964" r="28" fill="green" stroke="black" />
<circle cx="226" cy="734.964" r="28" fill="green" stroke="black" />
<circle cx="282" cy="734.964" r="28" fill="green" stroke="black" />
<circle cx="338" cy="734.964" r="28" fill="green" stroke="black" />
<circle cx="394" cy="734.964" r="28" fill="green" stroke="black" />
<circle cx="450" cy="734.964" r="28" fill="green" stroke="black" />
<circle cx="506" cy="734.964" r="28" fill="green" stroke="black" />
<circle cx="562" cy="734.964" r="28" fill="green" stroke="black" />
<circle cx="618" cy="734.964" r="28" fill="green" stroke="black" />
<circle cx="674" cy="734.964" r="28" fill="green" stroke="black" />
<circle cx="730" cy="734.964" r="28" fill="green" stroke="black" />
<circle cx="786" cy="734.964" r="28" fill="green" stroke="black" />
<circle cx="842" cy="734.964" r="28" fill="green" stroke="black" />

</svg>